<svg xmlns="http://www.w3.org/2000/svg" width="31" height="18.03" viewBox="0 0 31 18.03">
  <g id="Group_51" data-name="Group 51" transform="translate(-395 -507.985)">
    <g id="shopping-cart" transform="translate(395 507.985)">
      <path id="Vector" d="M0,0H18.03V18.03H0Z" fill="none" opacity="0"/>
      <path id="Vector-2" data-name="Vector" d="M2.629,1.315A1.315,1.315,0,1,1,1.315,0,1.315,1.315,0,0,1,2.629,1.315Z" transform="translate(10.893 14.274)" fill="#fff"/>
      <path id="Vector-3" data-name="Vector" d="M2.629,1.315A1.315,1.315,0,1,1,1.315,0,1.315,1.315,0,0,1,2.629,1.315Z" transform="translate(4.883 14.274)" fill="#fff"/>
      <path id="Vector-4" data-name="Vector" d="M2.7,2.021l-.15,1.841a.6.6,0,0,0,.6.646h11.5a.6.6,0,0,0,.6-.556A2.222,2.222,0,0,0,13,1.54H3.786A2.048,2.048,0,0,0,3.328.631,1.968,1.968,0,0,0,1.893,0H.563A.568.568,0,0,0,0,.563a.568.568,0,0,0,.563.563H1.871a.825.825,0,0,1,.826.894Z" transform="translate(0.939 0.939)" fill="#fff"/>
      <path id="Vector-5" data-name="Vector" d="M12.4,0H.879a.6.6,0,0,0-.6.548L.008,3.816A2.2,2.2,0,0,0,2.194,6.2h8.354a2.252,2.252,0,0,0,2.2-2.051L13,.639A.588.588,0,0,0,12.4,0Z" transform="translate(3.005 6.573)" fill="#fff"/>
    </g>
    <line id="Line_1" data-name="Line 1" y2="14" transform="translate(425.5 510.5)" fill="none" stroke="rgba(255,255,255,0.53)" stroke-linecap="round" stroke-width="1"/>
  </g>
</svg>
