<svg xmlns="http://www.w3.org/2000/svg" xmlns:xlink="http://www.w3.org/1999/xlink" width="41.641" height="43.415" viewBox="0 0 41.641 43.415">
  <defs>
    <clipPath id="clip-path">
      <rect id="Rectangle_16" data-name="Rectangle 16" width="41.641" height="43.415" fill="#00b05b"/>
    </clipPath>
  </defs>
  <g id="Group_13" data-name="Group 13" clip-path="url(#clip-path)">
    <path id="Path_11" data-name="Path 11" d="M25.535,35.142l-4.194,1.07c.7,2.359.234,3.982-1.434,4.92a3.623,3.623,0,0,1-4.485-.743c-1.238-1.4-1.218-3.105.029-4.851L11.04,33.285c-.6.567-1.281,1.2-1.941,1.865a.635.635,0,0,0-.064.461,3.619,3.619,0,1,1-3-3.013.672.672,0,0,0,.5-.111c.641-.637,1.253-1.3,1.869-1.95L6.607,27.45a3.693,3.693,0,0,1-3.131,1.482A3.533,3.533,0,0,1,1.223,28a3.611,3.611,0,0,1-.681-4.535c.98-1.64,2.689-2.116,4.9-1.321A14.811,14.811,0,0,1,7.493,14.3c-.786-.605-1.549-1.212-2.34-1.78-.126-.09-.387-.035-.573.01a3.463,3.463,0,0,1-3.709-1.19A3.389,3.389,0,0,1,.422,7.428a3.448,3.448,0,0,1,3.4-2A3.569,3.569,0,0,1,7.249,9.07a.877.877,0,0,0,.41.836C8.343,10.4,9,10.931,9.7,11.464a14.624,14.624,0,0,1,8.371-4.121.688.688,0,0,0-.3-.879,3.557,3.557,0,0,1-.513-5.281,3.626,3.626,0,0,1,5.327-.035,3.558,3.558,0,0,1-.444,5.287.714.714,0,0,0-.342.9,14.891,14.891,0,0,1,8.09,3.838c.3-.378.629-.74.9-1.138a.854.854,0,0,0,.028-.524A3.617,3.617,0,1,1,33.9,12.64a.992.992,0,0,0-.676.2c-.4.331-.758.723-1.107,1.066.4.784.754,1.509,1.138,2.219a.717.717,0,0,0,.379.275,3.651,3.651,0,0,1,.975,6.5.832.832,0,0,0-.3.435c-.128.51-.189,1.037-.325,1.544-.094.352,0,.533.339.622a1.627,1.627,0,0,1,.365.151,1.872,1.872,0,0,0,1.958,0,3.478,3.478,0,0,1,4.694,1.86,3.613,3.613,0,0,1-1.921,4.756,3.5,3.5,0,0,1-4.7-1.978,1.756,1.756,0,0,0-1.353-1.275,6.075,6.075,0,0,1-.7-.268c-.631.832-1.2,1.68-1.866,2.434s-1.423,1.387-2.183,2.114c.589.874,1.183,1.786,1.817,2.668a.87.87,0,0,0,.583.209,3.62,3.62,0,0,1,.375,7.179,3.6,3.6,0,0,1-4-4.8.809.809,0,0,0-.036-.611c-.6-.956-1.234-1.89-1.834-2.8m-5.63-2.585A10.854,10.854,0,1,0,9.076,21.692a10.839,10.839,0,0,0,10.83,10.866" transform="translate(0 -0.001)" fill="#00b05b"/>
    <path id="Path_12" data-name="Path 12" d="M195.573,175.647a3.617,3.617,0,1,1-3.62,3.627,3.621,3.621,0,0,1,3.62-3.627" transform="translate(-170.211 -155.752)" fill="#00b05b"/>
    <path id="Path_13" data-name="Path 13" d="M129.889,147.317a1.808,1.808,0,1,1,1.779-1.821,1.826,1.826,0,0,1-1.779,1.821" transform="translate(-113.549 -127.425)" fill="#00b05b"/>
    <path id="Path_14" data-name="Path 14" d="M145.852,227.178a1.807,1.807,0,1,1,1.792-1.808,1.825,1.825,0,0,1-1.792,1.808" transform="translate(-127.715 -198.241)" fill="#00b05b"/>
  </g>
</svg>
