<svg xmlns="http://www.w3.org/2000/svg" xmlns:xlink="http://www.w3.org/1999/xlink" width="150.15" height="33.788" viewBox="0 0 150.15 33.788">
  <defs>
    <clipPath id="clip-path">
      <rect id="Rectangle_9" data-name="Rectangle 9" width="150.15" height="33.788" fill="none"/>
    </clipPath>
  </defs>
  <g id="Group_3" data-name="Group 3" transform="translate(-29)">
    <g id="Group_2" data-name="Group 2" transform="translate(29)" clip-path="url(#clip-path)">
      <path id="Path_2" data-name="Path 2" d="M16.7,0A27.709,27.709,0,0,0,0,5.566V33.407H33.408V5.566A27.708,27.708,0,0,0,16.7,0M27.84,27.84H5.568V8.548a22.3,22.3,0,0,1,22.272,0Z" fill="#00b05b"/>
      <path id="Path_3" data-name="Path 3" d="M689.555,43.695c-3.619,0-7.527,1.158-7.527,5.356V66.229c0,3.619,2.219,5.646,5.983,5.646h8.155V67.821H688.2c-1.206,0-1.834-.531-1.834-1.737V61.452a6.622,6.622,0,0,0,4.005,1.013c2.654,0,6.707-1.11,6.707-5.356V49.051c0-4.246-4.053-5.356-7.527-5.356m3.185,12.594c0,1.93-1.11,2.171-3.185,2.171-1.93,0-3.185-.145-3.185-2.171V49.871c0-2.026,1.255-2.171,3.185-2.171,2.075,0,3.185.241,3.185,2.171Z" transform="translate(-601.266 -38.521)" fill="#424548"/>
      <path id="Path_4" data-name="Path 4" d="M386.216,52.747a7.452,7.452,0,0,1-1.255-3.908V46.957h-4.343v2.075a10.482,10.482,0,0,0,1.882,5.79l2.316,3.812a9.157,9.157,0,0,1,1.255,4.777v5.6c0,1.979-1.3,2.171-3.089,2.171-1.689,0-2.8-.241-2.8-2.171V60.853h-4.343v8.975c0,4.246,4.053,5.356,7,5.356,3.619,0,7.527-1.158,7.527-5.356V63.122a12.747,12.747,0,0,0-1.737-6.37Z" transform="translate(-331.337 -41.397)" fill="#424548"/>
      <path id="Path_5" data-name="Path 5" d="M534.169,43.695c-3.378,0-7.286,1.158-7.286,5.356V66.229c0,3.619,2.219,5.645,5.983,5.645h8.058V67.821h-7.865c-1.206,0-1.834-.53-1.834-1.737V49.872c0-2.027,1.255-2.171,2.943-2.171,1.834,0,2.943.241,2.943,2.171V60.1h4.343V49.051c0-4.246-4.053-5.356-7.286-5.356" transform="translate(-464.492 -38.521)" fill="#424548"/>
      <path id="Path_6" data-name="Path 6" d="M1152.633,43.695c-3.378,0-7.286,1.158-7.286,5.356V71.874h4.295v-22c0-2.027,1.3-2.171,2.992-2.171,1.785,0,2.9.241,2.9,2.171v22h4.343V49.051c0-4.246-4.053-5.356-7.238-5.356" transform="translate(-1009.721 -38.521)" fill="#424548"/>
      <path id="Path_7" data-name="Path 7" d="M996.678,55.083a3.831,3.831,0,0,0,1.786-3.571V48.762c0-3.667-2.365-5.066-6.611-5.066-4.2,0-6.466,1.3-6.466,5.066V51.32h4.2V49.293c0-1.351.627-1.737,2.22-1.737,1.64,0,2.412.289,2.412,1.737V51.32a2.371,2.371,0,0,1-2.461,2.606c-3.522.241-7.19,1.3-7.19,5.356v7.672c0,4.2,3.957,5.356,7.576,5.356,3.426,0,7.479-1.11,7.479-5.356V59.716a4.63,4.63,0,0,0-2.943-4.632m-1.4,11.05c0,1.93-1.11,2.171-3.137,2.171-1.93,0-3.233-.193-3.233-2.171V60.1c0-1.979,1.3-2.171,3.233-2.171,2.027,0,3.137.241,3.137,2.171Z" transform="translate(-867.98 -38.522)" fill="#424548"/>
      <path id="Path_8" data-name="Path 8" d="M841.092,52.747a7.452,7.452,0,0,1-1.255-3.908V46.957H835.5v2.075a10.849,10.849,0,0,0,1.833,5.79l2.365,3.812A9.133,9.133,0,0,1,840.9,63.41v5.6c0,1.979-1.255,2.171-3.185,2.171-1.592,0-2.654-.241-2.654-2.171V60.853h-4.343v8.975c0,4.246,4.053,5.356,7,5.356,3.619,0,7.527-1.158,7.527-5.356V63.122a12.745,12.745,0,0,0-1.737-6.37Z" transform="translate(-732.349 -41.397)" fill="#424548"/>
    </g>
  </g>
</svg>
