<svg xmlns="http://www.w3.org/2000/svg" width="185" height="42" viewBox="0 0 185 42">
  <g id="Group_52" data-name="Group 52" transform="translate(-1363 -88)">
    <g id="Rectangle_11" data-name="Rectangle 11" transform="translate(1363 88)" fill="#fff" stroke="#ddd" stroke-width="0.8">
      <rect width="185" height="42" rx="20" stroke="none"/>
      <rect x="0.4" y="0.4" width="184.2" height="41.2" rx="19.6" fill="none"/>
    </g>
    <text id="_995_322_444_999" data-name="+995 322 444 999" transform="translate(1529.898 114)" font-size="14" font-family="SegoeUI-Bold, Segoe UI" font-weight="700"><tspan x="-118.118" y="0">+995 322 444 999</tspan></text>
    <g id="call-calling" transform="translate(1209.102 -86.796)">
      <path id="Vector" d="M15.091,12.341a1.923,1.923,0,0,1-.189.824,3.118,3.118,0,0,1-.514.771,3.407,3.407,0,0,1-1.239.892,3.8,3.8,0,0,1-1.474.287,6.3,6.3,0,0,1-2.464-.552,13.273,13.273,0,0,1-2.6-1.5A21.727,21.727,0,0,1,4.134,10.95,21.472,21.472,0,0,1,2.025,8.479,13.473,13.473,0,0,1,.544,5.9,6.365,6.365,0,0,1,0,3.431,3.909,3.909,0,0,1,.272,1.972,3.478,3.478,0,0,1,1.141.71,2.214,2.214,0,0,1,2.713,0a1.42,1.42,0,0,1,.612.136,1.232,1.232,0,0,1,.506.423L5.585,3.03a2.586,2.586,0,0,1,.3.529,1.194,1.194,0,0,1,.106.461,1.026,1.026,0,0,1-.159.537,2.57,2.57,0,0,1-.423.537l-.574.6a.4.4,0,0,0-.121.3.686.686,0,0,0,.023.174c.023.06.045.106.06.151a6.271,6.271,0,0,0,.7.967c.34.393.7.793,1.1,1.194.408.4.8.771,1.2,1.111a5.8,5.8,0,0,0,.975.7c.038.015.083.038.136.06a.522.522,0,0,0,.189.03.416.416,0,0,0,.31-.128l.574-.567a2.319,2.319,0,0,1,.544-.423,1.006,1.006,0,0,1,.537-.159,1.206,1.206,0,0,1,.461.1,2.923,2.923,0,0,1,.529.295l2.5,1.776a1.146,1.146,0,0,1,.416.484A1.55,1.55,0,0,1,15.091,12.341Z" transform="translate(173.511 189.511)"/>
      <path id="Vector-2" data-name="Vector" d="M2.645,2.645A3,3,0,0,0,1.761.93,2.581,2.581,0,0,0,0,0" transform="translate(183.336 192.156)" fill="none" stroke="#000" stroke-linecap="round" stroke-linejoin="round" stroke-width="1.5"/>
      <path id="Vector-3" data-name="Vector" d="M5.29,5.29A5.286,5.286,0,0,0,0,0" transform="translate(183.336 189.511)" fill="none" stroke="#000" stroke-linecap="round" stroke-linejoin="round" stroke-width="1.5"/>
      <path id="Vector-4" data-name="Vector" d="M0,0H18.137V18.137H0Z" transform="translate(172 188)" fill="none" opacity="0"/>
    </g>
  </g>
</svg>
