<svg id="Objects" xmlns="http://www.w3.org/2000/svg" xmlns:xlink="http://www.w3.org/1999/xlink" width="314.654" height="316.651" viewBox="0 0 314.654 316.651">
  <defs>
    <clipPath id="clip-path">
      <path id="Path_115" data-name="Path 115" d="M228.918,20.113c-.426-.243-.828-.463-1.217-.657l-1.12-.657.67.353.122.061h0l1.7.925a1.01,1.01,0,0,1,.231.122l.584.353h0l-1-.536m-5.977-3.055-1.619-.8,1,.475.377.17,1.8.9-1.558-.743m-3.275-1.583-1.217-.56-.767-.329-2.435-1.071-.609-.28c.682.268,1.388.6,1.68.718l-.316-.134.828.377.268.11.828.317h-.073l1.546.706.158.073,1.826.9c-.536-.256-1.083-.523-1.656-.779m89.449,107.124c-.195-.828-.4-1.656-.609-2.435l.694,2.313v.122a.365.365,0,0,1,0,.17v-.134m-1.643-5.88-.84-2.982c-.536-1.643-1.217-3.518-1.923-5.4l-.536-1.643L302.7,102.7a102.79,102.79,0,0,1,4.054,11.09l1.217,4.066-.365-1.083m-61.45-85.846c-2.069-1.473-4.163-2.909-6.281-4.285l-.207-.146c2.2,1.436,4.382,2.922,6.513,4.443h0m-7.949-5.393-.207-.146h0c-.134-.1-.134-.1-.158-.1h0c.426.292.8.523,1.217.767l.633.438-1.485-.962m.8.475h0m-.487-.268c2.581,1.643,5.113,3.348,7.608,5.137-2.435-1.716-5.247-3.542-7.608-5.137m75.377,123.96v.17h0v-.158m.268,3.652v.122a.415.415,0,0,1,0-.122m0-.195h0v-.67a3.852,3.852,0,0,0,.061.852v-.195m-.1-1.412a1.327,1.327,0,0,1,0-.219v-.767a5.179,5.179,0,0,0,.085,1.144v-.158m-.1-1.388v0m-1.217-9.739L312.742,139l.341,2.289h0c.073.475.11.962.17,1.436v.122c-.1-.743-.207-1.473-.329-2.2m-3.652-17.992a.426.426,0,0,0,0-.292c.122.633.28,1.29.426,1.972l-.487-1.68M41.133,40.6c-1.217,1.047-2.374,2.106-3.518,3.165,1.217-1.132,2.228-2.082,3.518-3.165m45.978-3.908c.158-.219.317-.426.463-.657s.45-.767.694-1.144l-1.01-.134-1.619.682-.779,1.643H86.3l.816-.353m-2.629-2.142.122-.073.365-.645c-.268.134-.523.317-.8.45a2.3,2.3,0,0,1-.523.146,7.9,7.9,0,0,0-1.412.6c-.219.122-.475.231-.706.341.073.146,0,.353.183.45a1.217,1.217,0,0,0,.536,0,6.391,6.391,0,0,0,2.24-1.217M112.943,11.7l1.485-.329V10.63l-1.473-.061h-1.12l-1.217.864-.755.694h1.692l1.351-.511M234.639,23.387c-.548-.341-1.1-.633-1.643-.95l-.3-.1,1.01.609c.73.426,1.424.864,2.142,1.3h.146c-.219-.17-.475-.3-.694-.463h0c-.438-.3-.438-.3-.694-.463m-7.5-4.358-1.631-.73.913.475-.974-.5-.11-.061.645.341-.207-.1c-1.339-.694-2.727-1.388-3.469-1.765h0c-1.047-.523-2.057-1-2.873-1.376l7.121,3.518.657.353h0m1.9,1.023c-.17-.073-.316-.17-.475-.256l-.231-.122-.974-.523,1.729.925h0M179.884,2.912a13.243,13.243,0,0,0-1.363-.256h.1c-1.424-.3-2.033-.4-2.033-.4a10.249,10.249,0,0,1,1.315.3l-.377-.073-.9-.073-.219-.061-.487-.085a3.956,3.956,0,0,0,.463.1h-.45c1.509.292,2.009.426,2.435.511a12.173,12.173,0,0,0-2.946-.511c.073,0,1.12.268,1.984.426h.1a3.238,3.238,0,0,0,.475.085h-.158a9.279,9.279,0,0,1,1.217.243h-.487l.962.231c.353.061.694.158,1.047.207h.353c.463,0,.876.377,1.363.243l-.889-.45a4.736,4.736,0,0,0,.682.122c-.609-.219-1.217-.28-1.875-.475h0l-.329-.085m.122.4h.012M190.487,5.87l-.414-.146c-.937-.256-1.875-.463-2.8-.743h-.5c-1.023-.3-2.069-.56-3.1-.828-.158,0-1.631-.39-2.142-.475l.3.11a5.953,5.953,0,0,1-.779-.146l-1.047-.268c-1.132-.1-2.2-.5-3.311-.67h0c.377.11.767.195,1.144.28l.414.11c1.656.414,1.656.414,1.948.511a6.087,6.087,0,0,1-1.3-.292l-.4-.11-.438-.11-.4-.1a4.3,4.3,0,0,0-.974-.207c.341.122.694.207,1.035.317H177.5l-.682-.183c-.3-.085-.621-.183-.937-.256a5.756,5.756,0,0,0,.6.195h-.438v.073c1.753.5,3.555.828,5.3,1.436a13.39,13.39,0,0,0-2.24-.572,30.883,30.883,0,0,0,3.031.84,5.349,5.349,0,0,1-1.108-.39c.682,0,1.217.45,1.936.475h.243a14.61,14.61,0,0,0-1.449-.536L181.1,4h.073l1.619.463h.329l-.45-.17.377.085c.353.11.718.231,1.083.317l.329.11h-.73l.146.1h-.243c0,.11,0,.11.426.243l.913.3h.195c.426.1.438.1.536.085s-.073-.085-.487-.28h0a3.737,3.737,0,0,1,1.351.523h0a2.788,2.788,0,0,0-.621-.073,5.624,5.624,0,0,0,1.911.657,18.089,18.089,0,0,1,3.153.962h0s-2.788-1.217-3.129-1.327h.085c-.633-.231-1.327-.463-2.009-.682h.146a11.127,11.127,0,0,0-2.544-.816h.56c3.1.9,3.1.9,5.49,1.7h.195a5.343,5.343,0,0,0-.755-.353,11.443,11.443,0,0,1,1.716.536h.243a3.761,3.761,0,0,0-.889-.341h.353M312.45,138.619a160.15,160.15,0,0,0-3.421-16.312,6.257,6.257,0,0,0-2.909-1.217,83.429,83.429,0,0,0-9.434-1.546,15.218,15.218,0,0,1,.158,3.031v.243l-.073.183h-.1a.986.986,0,0,0-.523.195h-.134l-.1.061-.085.122-.207.195-.219-.256-.183-.292c-.219-.207-.256-.207-.292-.207a3.2,3.2,0,0,1-1.047-.438h-.256v.3c.645.572.645.572,1.047.706a1.023,1.023,0,0,1,.341.621v.329c.11.231.268.523.377.755a7.562,7.562,0,0,1,.17.755l.073.243v.329a21.744,21.744,0,0,0,1.436,3.652,6.988,6.988,0,0,0,1.023,1.936c.158,0,.231,0,.317.073h.292c.122-.4,0-.816.085-1.217l.243.414c3.031,7.426,3.031,7.426,3.177,8.521l.061.4c0,3.068,1.948,5.539,2.642,8.4.353,1.595-.256,3.275.487,4.869a18.893,18.893,0,0,1,1.351,3.725l.1.414,1.68,11.041c-.073,1.8-.146,3.433-.256,5.04a7.206,7.206,0,0,0,.523,2.435,2.045,2.045,0,0,0,.609,0c.341-.718.341-1.534.706-2.24a1.218,1.218,0,0,1,.828,0h0l.061.28.316-.889a3.421,3.421,0,0,1,1.534-2.873,6.963,6.963,0,0,1,.17-.986c.122-.718.8-3.311.816-3.323l.329.28c0-1.972.085-3.092.085-3.1l.146.134v-2.435c-.073-5.259-.39-10.189-.925-15.07v.3c-.11-.816-.195-1.619-.329-2.435-.122-1.059-.243-1.96-.377-2.885a4.194,4.194,0,0,0-.158-.852c.11,1.217.11,1.217.475,4.687l-.17-.231h-.061l-.17-.56-.085-.1v1.57a5.9,5.9,0,0,1-.523-2.727v-.268c.085-.183.085-.183.11-.183a1.291,1.291,0,0,0,.268.511,1.886,1.886,0,0,0-.11-1.217h-.158c-.219-.3-.243-.718-.645-.9a.451.451,0,0,0-.17-.183c-.134-.9-.256-1.814-.4-2.7-.84-3.36-2.435-6.5-2.556-10.043.243.073.755.256,1.923,4.955a22.5,22.5,0,0,0,1.716,4.979l.1.11h0v-.4a4.411,4.411,0,0,1,.231.925v.11m-3.421-16.312a163.121,163.121,0,0,0-29.289-59.016l3.968,5.247c4.979,6.914,4.979,6.914,13.22,21.656,3.871,7.657,3.871,7.657,9.739,23.677l2.556,8.7-.11-.183m-61.17-75.389,1.217.1-.3-.11h-.134a3.932,3.932,0,0,1-.45-.3l-.292-.353h-.414l-.085.1v.061l.243.341.1.061.183.134m-28.205-27.39L217.9,18.238h-.292l.219.122,1.522.962h.463m29.264,27.524a128.2,128.2,0,0,1,16.9,2.106,5.3,5.3,0,0,1,2.118.84l-.8-.816C255,37.46,255,37.46,248.163,32.371l-9.13-6.33h0l-3.165-1.984c.657.414.718.45,1.485.962h0l.633.438.085.085c1.217,1.108,3.019,1.546,3.944,3.043l.073.085c-1.108-.706-2.216-1.388-3.287-2.118h.231l-1.376-.9c-.475-.28-.475-.28-.67-.377l-1.217-.779h-.11a4.176,4.176,0,0,0-.779-.414h-.219a6.711,6.711,0,0,0,.828.6,5.207,5.207,0,0,1,.523.231l2.593,1.7a13.389,13.389,0,0,0,1.7,1.217c.256.146.45.268,1.278.8a2.965,2.965,0,0,1,.3.207c.633.548,1.363,1,2.033,1.5l-.548-.243-.621-.426c-.146-.1-.329-.231-.487-.317l-.231.122c.572.548,1.071,1.156,1.643,1.7v.134c1.083.8,2.252,1.5,3.275,2.362h0a2.081,2.081,0,0,1-.84-.256H245.9a13.465,13.465,0,0,1-2.739-1.57,4.151,4.151,0,0,0,1.923,1.656,5.55,5.55,0,0,0,.657.511.852.852,0,0,0,.292.146,3.275,3.275,0,0,1,1.607.95c0,.146-.243.122-.426.1l.231.231c-1.217-.219-3.652-2.228-4.614-2.982a1.217,1.217,0,0,0-.572-.183l-1.278-1.01c-2.118-1.716-4.662-2.751-6.854-4.358.9.341,4.029,1.887,4.054,1.9a6.877,6.877,0,0,0,1,.183c.523.219,1,.536,1.546.706h.3a2.825,2.825,0,0,1-.073-.56,32.26,32.26,0,0,0-8.838-5.368,8.012,8.012,0,0,0-1.023-.511,2.435,2.435,0,0,0-1.059-.4c-.146.073-.158.073-.183.073-.56-.28-1.144-.56-1.692-.864h-.329a8.436,8.436,0,0,1,.974.657h-.231a7.207,7.207,0,0,1-1.29-.8l-.292-.207a9.13,9.13,0,0,1-1.668-1.035h-.341l.231.231a15.486,15.486,0,0,1-1.68-.548A4.626,4.626,0,0,1,222.88,20h.268l-.718-.5a11.893,11.893,0,0,0-2.995-1.217l1.217.73a3.567,3.567,0,0,1-1.071-.475l-.463-.3-.511-.329-.864-.085a12.443,12.443,0,0,1,1.522.95l.511.316.292.158h-.11a9.885,9.885,0,0,0-1.814-1.01,1.546,1.546,0,0,0-.438-.085l-1.01-.609-.256-.073h0l.183.195-.243.122c.3.268.67.475.986.743v.134a3.518,3.518,0,0,1-1.083-.572,1.217,1.217,0,0,0-.633-.207l-.146.231a3.835,3.835,0,0,0,2.155,1.108c.329.183.609.377.913.56h-.3a8.693,8.693,0,0,0-1.363-.377h-.353a10.057,10.057,0,0,1,1.716,1.217c-1.217-.475-2.349-1.144-3.542-1.692,0,.195.231.365.475.511a9.739,9.739,0,0,1,2.13,1.619c-.365.1-.377.1-1.485-.718l.183.256-.207.17.536.45c.39.243.84.329,1.217.609l.45.353.195.183a16.97,16.97,0,0,1-2.751-1.424c.085.28.438.536.8.8H215.7c0,.134,0,.134.852.706a1.656,1.656,0,0,1-.523.17l.243.463-.1.061a2.946,2.946,0,0,0,.426.536H216.4l.122.243a1,1,0,0,0,.463.122.864.864,0,0,1,.061-.5h.292v-.268a1.217,1.217,0,0,0,.353-.4,1.8,1.8,0,0,1,1.436.6h-.536l.195.183-.268.061a10.371,10.371,0,0,0,1.716,1.826h-.3s2.167,3.567,2.605,3.968l-.3-.256c-.134.621-.134.621-.073.791a1.4,1.4,0,0,0-.4.353c.122.158.3.365.438.511l.268.085a2.045,2.045,0,0,1,.633,0,5.767,5.767,0,0,0,.6.657,2.8,2.8,0,0,0-.146.548h-.268c.1.45.061.511-.17.755a5.47,5.47,0,0,0,.438.767l-.207.219-.682-.317a4.113,4.113,0,0,0-.584,0l.414.56.572.487-.073.28-.28.1h-.243c-.231.268-.231.268-.329.755h-.268v.268c.316.353.974,1.1,0,1.083a1.217,1.217,0,0,0-.317.56c.694.682.694.682.767.9l-.183.219c.28.657.913.974,1.3,1.522,0,.207-.11.207-.183.195l.073.268c.183.3.353.536.511.767h.743c.767-.158,1.035.682,1.059.682l-.146.256c.146.243.3.511.475.755l-.231.158c.317.743.317.743,1.716.913a4.952,4.952,0,0,1,.511.852l-.11.256,4.869.256a7.574,7.574,0,0,0-.183-.913l.243-.134.256.1a1.217,1.217,0,0,0-.329-.876c1.083.146,2.216,1.85,2.228,1.863,2.788.256,5.381.4,7.827.572v-.256h.268a7.62,7.62,0,0,0-.694-1.887l-.365-.426c-.487-.523-.584-.645-1.558-.548-.73-.8-1.826-1.217-2.435-2.118-.816-.937-1.619-1.863-2.435-2.776,0-.974-1.01-1.436-1.217-2.313h.292c.061-.28.085-.45-.317-1.047a1.022,1.022,0,0,1,.5-.134,3.531,3.531,0,0,0-.621-.986v-.268h.28c-.183-1.668-1.972-1.7-2.763-2.739l.1-.268a13.111,13.111,0,0,0-1.1-1.217.937.937,0,0,1,.548,0h.231l1.473.95-.1-.268c.377,0,.39,0,1.716.889l1.217,1.083h-.523c1.777,1.583,1.972,1.741,2.033,2.337a4.224,4.224,0,0,1-.56-.158l-.207.183c2.155,3.652,2.155,3.652,4.309,5.734.256.28.365.4.487.511a32.051,32.051,0,0,0,5.368,3.2h.11a2.435,2.435,0,0,0,0-.6c.39-.085.767.207,1.156.134l-.122-.511a4.516,4.516,0,0,1,1.509,0v-.28a.669.669,0,0,1,.231,0c.438.28.767.682,1.217.925l.876.085.426.365.146.243a4.09,4.09,0,0,1-.816,0c0,.426,0,.426.743,1.887-.73-.061-1.217-.694-1.838-.913l-.195.231a2.52,2.52,0,0,1-.828-.158l-.17.195v.268a2.86,2.86,0,0,1-.536-.207l-.231.158a7.7,7.7,0,0,0,.6,1.035l.061.146m-16.324-1.071-4.869-.268h0c0,.243,0,.243.1.317a2.081,2.081,0,0,1,.377.365l.183.28h.937l.231.183a4.479,4.479,0,0,0,.755.584l.426-.17c.377.122.67.39,1.083.317,0,0,.438-.073.316-.414v-.183h.438l.1-.292c0-.17-.134-.28-.134-.438v-.329m10.019.621c-2.435-.195-5.015-.341-7.73-.511.414.548,1.108.791,1.522,1.339l.134.183v.4a5.222,5.222,0,0,0,1.144,1.1c.962.536.962.536,1.217.889l.268.377.256.377a5.466,5.466,0,0,0,1.862,1.595,1.278,1.278,0,0,1,.609.584c.195.3.207.657.377.962l.122.195c.195.28.438.523.633.791l1.911.122c-.791-1.363-.791-1.363-.657-1.716h.548c.28,0,.45.377.779.3.1-.183-.122-.377,0-.56s.158,0,.463,0c-.231-.39-.511-.767-.779-1.156h1.01a7.476,7.476,0,0,0-.694-.95h-.487c-.463.146-.67-.3-1.023-.426l-.207-.645c-.365-1-1.217-1.716-1.583-2.727l.11-.1v-.341l.158-.1m66.283,75.742a163.121,163.121,0,0,0-29.252-59c-3.409-4.029-7.961-9.41-11.577-13.244a5.3,5.3,0,0,0-2.118-.84,128.194,128.194,0,0,0-16.9-2.106l-1.217-.1.292.11h.1l.377.28a1.412,1.412,0,0,0-.828.39,2.362,2.362,0,0,0,1.984,1.217,1.339,1.339,0,0,0,0-.925c1.412.195,3.335,2.435,3.348,2.435-.256.56-.256.56.256,1.29.1.341,0,.329-.17.317s-.231-.085-1.814-1.4h-.231l-.584-.767h-.45c1.473,3.652,2.106,5.1,3.774,6.7l.158.39c-2.045-.5-2.045-.5-2.276-.475.146.974,1.108,1.327,1.583,2.045l-.17.061c-.913-.584-1.753-1.217-2.642-1.85-.207.1-.207.1-1.132,1.887h-.986c-1.1,1.217-2.252-.73-2.629-1.376h-.56a.831.831,0,0,1-.085.45h-.511a5.562,5.562,0,0,0-.767-.1H243.4c.134.268.329.633.475.9,0,.3-.231.292-.426.28-.791-.158-.828-.207-1.485-1.12h-.913l-.426-.706-.3-.4a1.083,1.083,0,0,1,1.047-.329c.645.183,1.217.584,1.814.779l.3-.377c-.511-1.1-1.668-3.1-1.668-3.116a1.12,1.12,0,0,0-.743-.329c-.28.085-.621.219-.889.329a1.87,1.87,0,0,0,.122.426c-.1.329-.146.317-.195.317a1.485,1.485,0,0,1-.828-1.522l-.45-.694c-2.094.268-1.583-2.666-3.226-3.1a13.293,13.293,0,0,0,.231,1.388c-.231.146-.56.317-.8.438a3.044,3.044,0,0,0,.536.73,2.022,2.022,0,0,0,.17.28v.45l-.39.3c.146.523.146.523,2.836,3.652a3.261,3.261,0,0,1,.219.4l.377.889c.414.56.937,1.01,1.363,1.534.231.39.377.657.511.925H240.2a7.06,7.06,0,0,1-1.035.134h-.377a6.014,6.014,0,0,0-1.863-.17c0,.146,0,.329,0,.475a2.52,2.52,0,0,0-.755.584c.146.84.146.84-.268,1.217l-.414-.3H234.31a1.217,1.217,0,0,0,.195.755l.852.45c.207.45.438.9.645,1.351-.876,0-1.035.231-1.936,1.85h-.377a7.73,7.73,0,0,1-.925,0,14.207,14.207,0,0,0,.852,2.544,3.835,3.835,0,0,0-1.863.231c.134.438.3.864.475,1.3H230.9c-.28-.146-.28-.146-1.327-.292-.438-.243-.475-.39-.548-.536a1.522,1.522,0,0,0-.876-.414,2.873,2.873,0,0,0,.243,1.351l.438.183c.11.316.268.718.365,1.023l.341.438c.073.195.146.377.207.56a4.869,4.869,0,0,1-3.652-.962c-1.862.706-1.862.706-2.009.95a3.238,3.238,0,0,1,.122.463c.426.329.536.329.67.329a2.435,2.435,0,0,0,2.045.95h.536c.95.67,1.838,1.412,2.751,2.106a19.992,19.992,0,0,1,.9,2.435c1.753,2.045,4.7,5.466,2.885,7.4v.463c-.9.694-.9.694-1.363.767h-.4c-1.278-.572-2.751-.694-3.908-1.607-1.534-.122-2.739-.17-3.956-.207-1.668-.243-1.668-.243-1.96-.426a1.319,1.319,0,0,0-.6-.231l-.365.268a3.776,3.776,0,0,0,.11.475,4.419,4.419,0,0,1-2.179.329l-.11.463c1.217,1.5.779,3.749,2.179,5.21.207,1.01.414,1.96.584,2.909v.45c-1.449,1.461-.694,2.666,0,3.822l.3.377a3.432,3.432,0,0,1,.231.755,1.056,1.056,0,0,0,.085.5c-.353.621-.377.816,0,2.3a3.4,3.4,0,0,0,1.327.207c1.217-.268,2.435.633,3.652.4.219.219.219.219,1.826,1.035.511.609.779,1.4,1.436,1.875l.17-.56-.438-.146a61.073,61.073,0,0,1,10.177-5.04l-.365-1.631c-1.315-2.033-1.315-2.033-.913-4.236a8.112,8.112,0,0,1,.146-.95h.974a2.642,2.642,0,0,0,.414-.852,2.434,2.434,0,0,1,.876-.243l.122-.45,2.289-.207a2.434,2.434,0,0,0-.134-1.461l-.134-.487a8.241,8.241,0,0,1-.755-2.836c.743-.45.743-.45,2.325-.11h.17a8.241,8.241,0,0,0,1.911.913h.889l.463-.073a5.089,5.089,0,0,1,.207-1.887,3,3,0,0,1,.755,0c.316,0,1.071.1,1.485-1.412,2.569.718,3.129,3.652,5.174,4.869a2.435,2.435,0,0,1,1.217,1.217c3.36,2.435,9.58,6.78,10.274,10.53-1.4.268-1.4.268-1.558,1.01a12.173,12.173,0,0,1-3.762-.195c.073.17.183.414.243.6,1.217.73,1.972,2.142,3.4,2.666l1.96.11c-.17-.621-.353-1.217-.511-1.875.5-.353.73-.974,1.29-1.217-.073-.657-.17-1.315-.28-1.972a1.887,1.887,0,0,1,.767-.475,1.728,1.728,0,0,0,0-.864,5.988,5.988,0,0,1-.316-.852h-1.01a.962.962,0,0,1-.5-.633,2.548,2.548,0,0,0-.1-.438,1.619,1.619,0,0,1,1.217-.207,3.348,3.348,0,0,1,1.534,1.217c.073-1.023-.609-1.777-.913-2.666a9.057,9.057,0,0,1-3.92-3.1c-1.3-.085-2.009-1.327-3.189-1.656-.463-1.449-1.875-2.13-2.654-3.3a.962.962,0,0,0-.365-.073c-.937-1.7-.937-1.7-2.033-1.68a8.274,8.274,0,0,1-.56-1.217l.146-.45c.146-.4.122-.475.1-.548-.8-1.473-.8-1.473-.8-1.631,1.546-.256,7.572,5.892,7.62,5.965a2.009,2.009,0,0,0,1.692.925l.341.56c1.059,1.315,2.9,1.643,3.908,3.055,1.546,2.2,1.96,4.954,3.36,7.3a4.954,4.954,0,0,1,.913.158,7.73,7.73,0,0,1,.95,2.142h-.73l-.122-.463-.45-.146c0,.8.682,1.619,1.814,2.763.085-.17.207-.4.316-.572,1.376.682,1.3,2.252,2.094,3.3a1.96,1.96,0,0,0,.852.231h.463c.17-1.217.17-1.217.11-1.351l-.17-.572a2.142,2.142,0,0,1-.268-.9l.365-.268a5.285,5.285,0,0,1,.657.621h.511c.195-.645.195-.645-.268-1.96h.463l.146-.426c-.73-1.071-.779-1.083-1.351-1.217a6.388,6.388,0,0,1,.487,1.485c-.353,0-1.144-.207-3.908-4.443-.158-.475-.219-.645-.28-.8a1.181,1.181,0,0,1,0-.463l.377.268c.706.706.706.706,1.144.8h.73c0-.536,0-.536-.548-1.217a3.646,3.646,0,0,0,0-.511c1.217-.718,1.862.682,2.849.876a6.133,6.133,0,0,0,.791,1.217,2.9,2.9,0,0,1,.5.889l-.329.329c.4,1.376,1.789,2.2,2.057,3.652a4.372,4.372,0,0,1,.316.925,3.114,3.114,0,0,0,.146.5,8.995,8.995,0,0,0,.791,1.351l.17.268.17.134.17.268.243.268.17.195a2.35,2.35,0,0,1,.292,1.059v.572a8.848,8.848,0,0,0,.523,1.473l.195.256.183.207a2.179,2.179,0,0,0,0-.791l-.073-.645c-.1-.3-.231-.718-.341-1.01l-.122-.463c0-.28,0-.28.134-.268l.146.061.195.219.146.243.195.219c.183.231.438.548.621.8l.207.317.17.268.17.134h.231a1.217,1.217,0,0,1,.67.317l.414.1.073-.122.073-.17-.1-.243v-.268c-.341-.828-.341-.828-.329-1.315v-.256l.073-.231a1.351,1.351,0,0,1,.828.329,7.822,7.822,0,0,0,.511.73c.195.231.426.536.621.743l.158.268.158.195.122.085.195.146,1.436.158c-.073-.268-.183-.621-.28-.889l-.085-.317a7.307,7.307,0,0,1-.3-1l.28.073h.231c.183.1.183.1.864.9a1.12,1.12,0,0,0,.329.085l.073-.11v-.426l.122.085a3.529,3.529,0,0,0,.377.657l.1.243a9.618,9.618,0,0,1,.414,1.656,9.616,9.616,0,0,0,.755,2.8l.1.256a2.715,2.715,0,0,1,.414,1.485v.085a5.646,5.646,0,0,1,.195.9v.256c-.061,1.5-.061,1.5-.158,1.668v.694c4.163.755,7.3,1.217,9.483,1.8a6.257,6.257,0,0,1,2.909,1.217m5.149,31.334-.243-3.165h0V149.7c-.256-2.909-.6-5.332-.6-5.344v-.073c.122,1.035.158,1.278.183,1.753q.8,7.3.937,14.8v-.986c0-.864-.073-1.729-.061-2.605h0v.67s-.061-1.948-.219-4.395m-1.217-12.173-.341-2.3c-.974-5-2.228-11.7-3.457-16.653l-.11-.183a160.143,160.143,0,0,1,3.421,16.312c.158.889.256,1.789.438,2.666v.17h0M210.889,45.494v-.085l-.475.207c-.17.122-.146.353-.316.475l-.268.085h0v.341c0,.207-.243.365-.243.6a1.485,1.485,0,0,0,.183.487l.426.195.256-.17v-.67h.085c.28,0,.56,0,.584-.073l-.061-.146-.11-.207.061-.365v-.085a1.806,1.806,0,0,0-.146-.548m20.987,17.128a8.281,8.281,0,0,0-.438-.864c-.779-.463-1.217-1.29-2.021-1.765l-.268.146c.158.207.158.207,0,.95-.317.17-.317.17-1.789-2.276h-1a13.857,13.857,0,0,0-.633-1.509c-.438-.523-1.144-.67-1.619-1.144l-.341-.219c-.3-.572-1.059-.694-1.29-1.327-.158-.377-1.327-1.57-1.984-1.607-1.132,0-2.142-.4-1.558-1.3-.1-.28-.1-.28-.1-.377a2.91,2.91,0,0,0,.6,0c-.061-.134-.122-.268-.243-.487-.243-.426.3-.767.122-1.217a17.077,17.077,0,0,0-.8-1.522,25.465,25.465,0,0,1-3.177-.207c0-.329,0-.329.134-.463,0-.353-.341-.56-.341-.913a6.591,6.591,0,0,0,.353-.755c-.353-.3-.377-.329-.633-.365h-.852a3.255,3.255,0,0,1-1.388,0l-.085.073a6.282,6.282,0,0,1,.365,1.424c.158.463.463.852.645,1.3a11.438,11.438,0,0,1-1.716-.438c-.925-.11.11,1.217.146,1.315.316.426.95.195,1.29.6v.268a4.079,4.079,0,0,1,.219.487c0,.377.548.609.39,1.071-.925.219-.925.219-.426,1.1h.767c.073-.085.146-.195,1.217.657h.694a1.5,1.5,0,0,1-.183-.767s1.509,1.388,1.376,2.009c-.864,0-.426.511.073,1.023l1.741.073v-.39c1.156.6,1.424,2.094,2.629,2.642.183.828.183.828.353,1.023.5.56.56.755.341,1.01h-1.059c-.341-.085-.633-.353-1.023-.353h-.511c0,.073,0,.073-.11.414v.426a4.871,4.871,0,0,0-.609,0l.073.4c.694.4,2.069,0,2.13,1.108a1.522,1.522,0,0,0-.4,0c-.231.28-.231.28-.195.633-.122.11-.17.146-.475.122h-.243c.353,1.716,1.12,1.217,1.424,1.023a24.69,24.69,0,0,1,2.885.39c.158,0,.536.6.195.852s-1.217,0-1.716.316a2.435,2.435,0,0,1,0,.426,4.139,4.139,0,0,0-1,.17,3.165,3.165,0,0,1,.365,1.217,1.509,1.509,0,0,1-.9.609c.621.341.621.341,1.509,0l.329-.3v-.3a3.518,3.518,0,0,1,.925.341h1.1c-.341-.925-.317-.974-.231-1.144,2.8.511,2.763.1,2.715-.45l.085-.1c.67.073,1.083.694,1.741.8h.219c.45-.183.925.134,1.376-.073.207-.1.183-.341.158-.657.3-.134.682.085.974-.207-.134-.645-.743-.962-1.071-1.485l-.11-.28c-.085-.207-.085-.207,0-.365a3.336,3.336,0,0,1,.609,0s-.1-.463-.207-.84h.682m-20.22-6.586h0m5.076.511c-.134-.56-.694-.743-1-1.156s-.195-.572-.426-.791a1.217,1.217,0,0,0-.475-.3c-.134-.073-.28,0-.414,0s-.256-.231-.426-.28h-.17a2.118,2.118,0,0,0-.743.256v.39l-.28.183A8.52,8.52,0,0,0,211.753,54a2.082,2.082,0,0,0-.816,0c.292.657.414,1.351.743,1.984h-.231l-.256.183h-.426l-.146.085c-.134.1-.329.243-.523.122-.4-.256-.4-.256-.73-.183.365.95.694,1.9,1.047,2.861a5.161,5.161,0,0,0,1.217,0c.158.414.316.84.463,1.217a3.7,3.7,0,0,0-.9.073c-.353.6.28,1.1.158,1.68-.329.17-.463.256-.134.828a2.094,2.094,0,0,0,1,.67c.341.11.548-.243.864-.256a1.826,1.826,0,0,1,.9.292c.341,0,.645-.475.67-.536s0,0-.085-.475c0-.195.195-.207.256-.353l3.177.11c-.085-.183-.146-.39-.219-.584s-.56-.511-.609-.925c.377-.268.377-.268.329-.536a12.7,12.7,0,0,0-.974-2.435l-.329-.816c.682,0,.755-.317.694-.609m73.1,190.572c.1-.146.195-.3.28-.463,3.36-5.867,3.3-6.16,3.177-6.939a61.744,61.744,0,0,1-3.908,6.014c-1.217.085-.876,1.461-1.631,1.923-1.047-.268-1.047-.268-3.968,3.92-1.278,1.85-1.68,4.236-3.542,5.709l-.1-.122c-1.217,1.376-2.276,2.849-3.433,4.248a4.94,4.94,0,0,0-.317.438c-.487.694-.889,1.449-1.4,2.142-.207.268-.4.548-.633.84-.572.8-1.217,1.558-1.777,2.435l.1.122h.523c-.39.621-.39.621-.39.743l.134.073v.17c2.763-.682,14.291-17.249,14.4-17.42l.572-.9c.17-.316.329-.621.511-.925s.17-.3.268-.45c.377-.523.8-1.01,1.132-1.546m21.79-64.64a1.984,1.984,0,0,0-.45-1.948l-.377.937-1,.28a3.324,3.324,0,0,0-1.071.073c-.183-.207-.414-.487-.584-.706,0-3.275,0-3.275-.268-4,0-7.012-4.553-13.111-4.029-20.232v-1.436c0-.195-2.642-21.157-11.126-32.758a2.115,2.115,0,0,0-.682.17c-.17.219-.4.523-.584.743h-.231c-4.37-1.911-7.973-5.441-12.952-6.087a63.3,63.3,0,0,1,1.217,6.342l-.889.195h-1.12c-.9-.852-1.436-2.106-2.715-2.556a27.619,27.619,0,0,1-3.335-.365c-.292-.536-.377-1.4-.791-1.863-1.96-2.313-5.161-2.313-7.487-3.981-2.581-1.862-.8-5.527-3.068-7.511,0-.292-.061-.694-.073-1a2.9,2.9,0,0,0,1.217-1.29,9.531,9.531,0,0,0-2.593-1.449,20.061,20.061,0,0,1-5.734.73,4.067,4.067,0,0,1-1.424,1.1c-2.118-1.863-2.118-1.863-6.087-1.217-.146.256-.329.621-.475.889a8.363,8.363,0,0,0-4.188.56,5.015,5.015,0,0,1-.438,1.777c-1.217.268-2.435-.073-3.579.572a5.564,5.564,0,0,1-.925-.122l-1-.207h-.694c-2.216,0-2.7-.39-3.579-1.156l-.949-.548c-.828,1.461-.146,3.1-.609,4.6a10.1,10.1,0,0,1-2.873,0c.195,1.4.39,2.836.56,4.261a7.1,7.1,0,0,0-3.384.426c0,2.337-.256,4.675-.122,7.024,0,.621.11,1.217.158,1.863a5.466,5.466,0,0,0-2.8.39,4.2,4.2,0,0,1-3.822,4.224c-.9.134-4.942,10.1-4.954,10.2l-.9-.073-.889.183-.876.548c.353,5.478-.353,5.758-2.508,6.574-.11.268-.231.633-.316.9a3.165,3.165,0,0,0,.536,2.033c3.847.718,3.847.718,4.236,1.461-1.035,2.082-1.035,2.082-1.035,9.057v1.12c0,.852,0,.852-2,2.873.1,1.339.609,2.593.828,3.908v2.009s3.9,6.756,7.645,8.728c-.183,1.607-.645,5.9,5.234,6.318,3.956,7.742,4.2,8.2,7.852,7.718a7.8,7.8,0,0,0,.828-1.838c1.217-.5,2.435.073,3.652-.231h.572c.816,0,.816,0,2.836.061.755,1.132.755,1.132,5.831,1.132,1.558-3.141,2.873-2.849,5.77-2.216a1.728,1.728,0,0,0,.56,0s2.435-2.544,4.528-.84c.329,4.285.329,4.285,2.057,5.052l6.622.353c-.183,1.1-.353,2.191-.56,3.433-.864,2.179-.864,2.179-3.153,10.006a2.593,2.593,0,0,0-1.351,1.035,3.128,3.128,0,0,0,1.363,1.217c.6,1.449,0,3.275,1.388,4.48-.475,4.516,2,9.118-.377,13.573-.11.329-.231.657-.572,1.765a3.652,3.652,0,0,0,.316,1.9l-6.854,11.309c-4.273,2.934-3.384,12.66-3.348,12.733a11.479,11.479,0,0,0-1.619,4.565c-.84,1.461-1.692,2.909-2.69,4.577,0,.085-4.979,12.782-5.661,14.742-.122.134-.219.256-.536.584-1.57.816-1.57.816-1.96,2.009.146,0,.3,0,0,.6l-.645.73.158.949a13.758,13.758,0,0,0,2.666,0,14,14,0,0,1,1.875-.6,7.84,7.84,0,0,0,3.007-.231c7.62-7.207,17.2-11.93,24.785-19.2l17.383-21.3c.256-.475.487-.95,1.12-2.118a17.824,17.824,0,0,0,.718-1.729c.937-1.887,1.862-3.786,2.739-5.916.39-3.482,2.435-6.4,3.165-9.8.061-.17.122-.341.268-.706,2.836-6.549,7.669-11.942,10.469-18.491,5.648-13.159,5.648-13.159,6.817-21.766m-149.3,38.431s-.219-5.368-2.849-6.513h-2.5c-3.956-1.217-3.956-1.217-4.309-3.53-2.435-1.595-2.435-1.595-4.261-1.083h-3.482c-3.384-1.363-3.384-1.363-4.37-.962v.925c-.718.426-1.108.657-2.812-.219v-.767c.4-.243.9-.572,1.29-.828a14.036,14.036,0,0,0-6.172-2.9,3,3,0,0,1-1.217-.317,3.652,3.652,0,0,0-3.068-.487,22.784,22.784,0,0,0,.085,2.435H126.6a13.951,13.951,0,0,1,0-1.436c.28-.341.657-.816.937-1.217l.645-.487c-.122-.219-.292-.5-.426-.718,0,0-1.449-.438-2.982-1.047h-.584a6.089,6.089,0,0,0-1.217.146c.122,1.765.158,2.581-2.069,2.24a9.838,9.838,0,0,1,0-1.327v-.791a3.652,3.652,0,0,0,2.252-.438c.609-3.007.073-4.224-.122-4.687h-1.546a21.913,21.913,0,0,0-.365-3.335,28.562,28.562,0,0,0-1.217-2.739c-2.751-.657-3.007-1.412-3.25-2.142a40.006,40.006,0,0,1-4.261-1.729c-1.351-.657-2.654.219-3.993.146h-.937c-6.427-1.217-6.415-3.835-6.4-4.942a37.735,37.735,0,0,1-3.36-1.863c0-.183,0-.365-.718-.633-1.217-.828-1.217-.95-1.217-2.532a4.7,4.7,0,0,0-.925.1c-.767.231-1.485.572-2.264.743-.633-.584-.633-.584-.767-2.2l.791-.231c0-.219.1-.511.122-.73a5.234,5.234,0,0,0-2.118-.828l-1.12.974c-.1,0-.183,0-.657-.207a5.283,5.283,0,0,0-1.461-.3c-.682.791-.816,1.887-1.461,2.7h-.694c-1.144-1.875-1.217-1.887-2.946-2.228a21.1,21.1,0,0,1-2.812-.1,10.639,10.639,0,0,0-1.509-.414,1.887,1.887,0,0,0-.694-1.643c-1.217-.353-2.143-1.217-3.36-1.522l-.633.438c0,.11,0,.11-2.873,3.153a24.943,24.943,0,0,1,.657,3.993l-.56.511c-.791-1.327-3.1-5.892.67-9.008l-.231-.572a7.91,7.91,0,0,0-1.3.085c-1.4.463-1.388.609-1.217,2.349H65.748c-3.153,2.191-3.153,2.191-4.869,2.2,0,1.059.11,2.13,0,3.335-.584.633-.584.633-2.057,1.1,0,2.24-3.165,3.506-1.948,6.087l.73.122c.134,2.24,2.922,4.687.487,6.7-.28,4.09-.28,4.09-1.668,4.334.122.56.3,1.315.463,1.875-.353.268-.8.657-1.132.949v1.108c-1.534.56-1.583,1.217-1.29,3.189a4.407,4.407,0,0,0-1.692.268c.45,1.534.329,3.153.864,4.65a12.176,12.176,0,0,0,2.2.073c.061.341.134.682.183,1.1-.11.207-.243.475-.341.682a3.1,3.1,0,0,0-1.278.755c.256,1.57-.925,3.25.28,4.772a6.683,6.683,0,0,0,.158.67c.962,4.565,6.464,5.563,7.742,9.885.085.377.183.755.329,1.217,1.144,1.5,1.461,3.482,2.9,4.8,2.788,2.544,2.69,8.716,7.973,8.022,4.869-.645,5.2,6.087,9.739,6.026.463,1.595.925,3.189,1.449,4.869a5.064,5.064,0,0,0,.39,1.473v.219c0,.158.1.3.341.864.11.195.243.463.341.657a2.435,2.435,0,0,1,0,.8,5.4,5.4,0,0,0,.4,1.522v.134a3.116,3.116,0,0,0,.45.876l.292.73.073.243a2.836,2.836,0,0,1,.1,1.12,5.745,5.745,0,0,0,.779,1.351,1.273,1.273,0,0,0,.158.438,4.566,4.566,0,0,1,.146.475c.231,1.509-.134,3.08.463,4.553s.487,1.363,1.071,6.087c0,.085.1.17.377.645,3.1,5.1,4.151,6.829,3.445,9.276a6.622,6.622,0,0,0,.633,1.059c.085.207.219.487.317.694.426.548.426.548.317,3.323,1.85,1.789,2.118,4.565,4,6.306,1.327,1.144.962,3.4,2.775,4.212h.791l-1.826-2.824h1.01c.207.317.414.633.633,1a5.575,5.575,0,0,1-.1.755c.39.548.8,1.1,1.217,1.7a24.87,24.87,0,0,0,1.923,3.25c-.438-.243-.986-.6-1.4-.864l-.219-.292-.536-.6s.073.1-.231.158a3.884,3.884,0,0,0,.925.925,7.084,7.084,0,0,1,2.2,1.96c-.706-.231-1.29-.73-2-.974a1.668,1.668,0,0,1,.511.9c0,.231.085.523.1.743,1.5.925,3.311,1.29,4.492,2.7a2.8,2.8,0,0,0-1.217.706l.645.548c.353.268.84.621,1.217.864a6.63,6.63,0,0,1,.475.706c.889.487,1.631,1.217,2.5,1.692l-.11.243.548.231a1.934,1.934,0,0,1,.718.17,2.276,2.276,0,0,0,1.217.816l.195.17,5.575,2.97a2.874,2.874,0,0,0,.426.329,18.167,18.167,0,0,0,2.216.572,3.213,3.213,0,0,1,.779.195,13.393,13.393,0,0,0,1.558-.073l.353-.438a4.2,4.2,0,0,0-2.179-.621c-.158-.158-.317-.317-1.1-.511,0,0-1.108-.8-2.435-1.875a5.531,5.531,0,0,0-.584-.511c-.548-.548-1.217-.974-1.716-1.509a3.286,3.286,0,0,0-.548-.487l-.706-.791c-.134-.183-.3-.414-.463-.6a1.7,1.7,0,0,0,.937-.17,7.411,7.411,0,0,1-.9-1.217l.6-.45c-.17-.475-.426-1.12-.6-1.607.134-.17.28-.438.4-.621-.122-.183-.268-.365-.925-.6l-.743-.158c-2.362-1.595-2.362-1.595-2.654-1.96-.061-.085-.122-.183-.231-.791.146-.17.341-.414.475-.6H114.6a6.769,6.769,0,0,1-.962-2.13,8.826,8.826,0,0,1-.329-2.179l.791.073a5.473,5.473,0,0,1,.11-.743c.037-.231-.11-.207-.621-.633h-.231l-.67.377c-.487-.329-.487-.329-1.461-1.716-.183-.329-.341-.67-.523-1h.609a12.057,12.057,0,0,1,1.5.718h1.826c-.11-.183-.256-.45-.377-.645a4.157,4.157,0,0,1-.3-.791c.085-.852.085-.852-.8-2.021-.122-.268-.219-.523-.341-.8a14.718,14.718,0,0,0,1.777-.085h1.12c.195-.1.5-.207.718-.3h1.789l.718.122c0-1.327,1.035-2.2,1.5-3.335l.158-.694q-.183-.548-.329-1.1a3.582,3.582,0,0,1-.73-.085,5.884,5.884,0,0,0-.3-1.047c-.828-1.035-2.276-1.339-2.995-2.52h1.546c5.1,1.217,6.294,1.473,6.7-.39,1.315-6.306,2.508-6.987,2.958-7.231a2.751,2.751,0,0,1,.146,1.436l.755.158a21.538,21.538,0,0,0,1.7-3.457c.146-1.363,1.984-1.388,2.191-2.715.28-1.923-1.838-3.433-.962-5.466a37.62,37.62,0,0,1,4.248-4.382h2.435a11.944,11.944,0,0,0,1.668-1.57,54.487,54.487,0,0,0,5.454-.146,3.226,3.226,0,0,1,.523-1.351,5.551,5.551,0,0,0,2.021-2.946,11.1,11.1,0,0,0,1.315-.864,5.794,5.794,0,0,1,.876-3.214c.5-.3.5-.3,1.217-4.236a2.763,2.763,0,0,1,.292-1.083,6.89,6.89,0,0,0,.84-3.007,7.3,7.3,0,0,0-.073-1.217,3.847,3.847,0,0,0-.134-.73,7.619,7.619,0,0,0-.085-1.522,5.953,5.953,0,0,1,.621-3.043c.487-.134.487-.134,3.469-3.968a2.362,2.362,0,0,0,2.009-1.083l3.555-4.93c.95-1.777.95-1.777,1.01-2.751m-77.909-67.33.122-.073c-.268-.28-.8-.11-.986-.548s.085-1.083,0-1.619a10.652,10.652,0,0,1-3.019.536h-1c-.523-.11-.937-.5-1.473-.536h-.5c-.438.158-.572.706-1.035.852H75.036c-.706,0-.925-.816-1.534-.962s-1.217-1.035-2.021-1.059l-3.311-.134a7.619,7.619,0,0,0-1.838.317v3.384c.913,1.217,1.534,1.863,1.85,1.948H69.2c.852,0,.852,0,1.546-.913.329-.438,1.546-.584,1.546-.584.572,0,1.083.292,1.631.292s1.083-.3,1.643-.292a13.816,13.816,0,0,0,3.762-.5.949.949,0,0,1,1,0,14.608,14.608,0,0,0,2.435.4h1.01c.365,0,.6-.341.889-.511m-25.673,1.595.1-.17c-.11-.353.146-.791-.195-1.108s-.536-.1-.791-.207-.487-.414-.791-.56h-.243l-2.605.073c.17.317.268.682.45,1.01l.231.292c.17.17.231.146.706,0s1.217.56,1.217.56a1.77,1.77,0,0,1,.146.694.755.755,0,0,0,.073.463c.28,0,.584.158.889,0s.183-.11.8-1.01m-2.581-6.44,6.951-.158c-.414-.791-2.069-3.189-3.494-3.421H58.87c-.986,0-1.948.475-2.934,0-.682-.317-.828-1.1-1.339-1.57a22.483,22.483,0,0,0-2.508-1.607c-.937-.633-.937-.633-1.071-1.071s-.183-.633-.755-.657-1.217.122-1.936.158c-.414,0-.414,0-.889.45s-.767,0-1.144-.085H44.469c-1.57,0-1.57,0-1.8.17-1.862,1.875.791,4.991,2.995,3.518.56-.365.852-1.035,1.5-1.29a5.075,5.075,0,0,1,1.558,0s1.765.682,1.911,1.8a.638.638,0,0,0,.28.6c1.5.828,1.716.779,2.2.694s.755.134,1.01.645a2.982,2.982,0,0,0,2.276,1.668M191.363,30.083l-.682-1.217a2.958,2.958,0,0,0-.633-.6,3.068,3.068,0,0,0-1.363-.292,7.5,7.5,0,0,0-.95-1.887h-1.351c-.463,0-.5,0-1.595,1.1a18.358,18.358,0,0,0-1.911-.341c-1.12,0-1.424.243-1.619.438a.816.816,0,0,1-.6.231h-1.217c-.085-.207-.158-.4-.256-.6s-.17-.39-.243-.572-.475-.365-.694-.584l-.536.134.256.56a6.086,6.086,0,0,0-2.264-.195c-.195,0-1.7.317-.475,1.595.609,0,1.144-.475,1.765-.243l1.278.743c.219.219.17.511.292.755a7.3,7.3,0,0,0-3.141-.073l.56.9c.353-.122.353-.122.5-.122H177.7l.219.158c.146.4.292.8.426,1.217l.548.645h.645c.621,0,1.217-.134,1.875-.11h.682c.889-.061,1.376.767,2.13.986,0,0,2.435.548,2.374-.694,0-.5,0-.5.365-.889s.645.183.816-.158c.316-.621.316-.621.633-.743s.463-.183,2.8-.1M120.783,70.583l.195-.231a5.382,5.382,0,0,0-.158-.864c-1.023,0-1.023,0-1.351-.219a6.439,6.439,0,0,1-1.522-1.217c-.158-.268-.243-.426-.487-.5a14.841,14.841,0,0,0-1.814-.231,7.708,7.708,0,0,1-.828-.438c.816-1.57.816-1.57,1.777-1.96.158-.073.828-.889.475-1.449a1.5,1.5,0,0,1-.207-.39,2.97,2.97,0,0,1-.645-.061A3.25,3.25,0,0,0,115,63.5c-.353.353-.183.84-.353,1.217-.39.925-.39.925-.852,1.3,0,0-4.687,4.212-4.869,4.431a3.129,3.129,0,0,0-.584,1.217,7.3,7.3,0,0,0,0,1.035h6.683c.572,0,.816.134,1.351.852a4.869,4.869,0,0,0,2.216,1.9,1.217,1.217,0,0,1,.572-.317c.231-.073.755-.268.73-2.252,0-1.217,0-1.217.889-2.276m-17.809-2.727v-.073c-.243-.1-.414-.292-.67-.39a1.047,1.047,0,0,0-.463,0h-.706a1.5,1.5,0,0,1-.876-.791c-.158-.365-.3-.438-.536-.438a2.13,2.13,0,0,1-.621,0l-.974.438a2.97,2.97,0,0,1,.743.414c.195.219.183.536.341.767l.158.17c.195.183.414.353.609.548s.28.4.45.572a.889.889,0,0,0,.438.256c.231.073.633.17,2.045-1.424M160.869.83q-.7-.113-1.4-.158a1.923,1.923,0,0,0-.463,0h0a2.544,2.544,0,0,1,.45.207,2.057,2.057,0,0,1-.718-.1l-.17.17h-.061l-.146.183.134.207L157.887.9a2.824,2.824,0,0,1-.463-.256A3.9,3.9,0,0,0,156.73.49h-.414l.231.17a3.018,3.018,0,0,0-.475,0l-.195-.073h.316a2.435,2.435,0,0,0-.828,0h-.584a1.473,1.473,0,0,0-.463.073h-.438V.429a6.306,6.306,0,0,0,1.071,0,4.309,4.309,0,0,0,.937,0h.231l-.3-.231h-.341L154.5.1h-2.52l-.256.073h-1.753L149.731.2h-.511l.1.061h.256V.441h0L149.5.514h-.755a2.508,2.508,0,0,0-.523,0L148.136.6h0l-.061.073h0l-.1.085h-.17V.4h-.268l-.256.1-.219.085h-.146l-.377.134h-.268l.219-.085.292-.061h.317l.17-.061h-3.08a2.568,2.568,0,0,0-.438.11H143.6L142.427.94h-.694l-.377.073-.9.158-.463.1V1.2H138.8l-.523.134h-.122l-.463.134h1.023l-.475.183h-.256l-.645.28-.5.158h-.5a1.217,1.217,0,0,0-.536.073h-.268a3.165,3.165,0,0,1-.463,0,1.583,1.583,0,0,0-.6,0l-.195.073-.256.1-.243.061h-.73a7.693,7.693,0,0,1-.913.073h-.8l-.158.061h-.463c-.852.256-.889.329-1.023.6l.219.085-.195.134h.657V3.46h0v.122h.463l.39-.085h.146a4.261,4.261,0,0,0,.572,0h.487l-.523.292-.219.1h-.134l-.6.183h-.913l-.426.085h-.11l-.329-.085h-.146l-.414.183H128.2a.791.791,0,0,0-.56.329h0a.877.877,0,0,1,.511.353H127.9l-.17.073-.158,1.059v.073l.11.073v.146l-.085.073h0l.11.11h0v.073l.256.073h.3l.085-.073.317-.3h.183a2.143,2.143,0,0,1,.475.073h.11l.207-.158h.341a1.315,1.315,0,0,0,.45,0l.146-.073h.584l.146-.073.341-.11.17.158h.584l.17.158v.073h.73l.195.146h.426v.231l.195.085h.219v.207a3.872,3.872,0,0,0-.548.73v.17h.256V9.79l.11.268-.1.134c-.231.195-.256.219-.207.645l-.329.523c-.39.268-.39.268-.511.5h.56a.937.937,0,0,1-.39.414,1.3,1.3,0,0,0-.45.134,6.853,6.853,0,0,1-.463.828h-.463c-.073.146-.158.292-.243.438v.243a1.534,1.534,0,0,0,.463.122,2.057,2.057,0,0,1,.463.061h.243a9.873,9.873,0,0,0,1.3-.085c.122-.231.122-.231,1.3-.4-.11.5-.256,1.12.682,1.156h.158a5.746,5.746,0,0,1,.718.609v.231l-.158.231h-1.449c-.523,0-.84,0-1.071-.39-1.862-.195-2.057,0-2.069.511l.353.377c-.463.511-1.376.329-1.7,1.083l.134.207c1.083.11,1.083.11,1.5.743h.268a2.276,2.276,0,0,1,2.422-.134c.1-.28.195-.572.268-.84a4.936,4.936,0,0,1-1.035-.073v-.231a2.983,2.983,0,0,1-.475,0l.231-.243h.706c.353.28.353.28,1.108.39h.767a1.071,1.071,0,0,1,.438.17v.256l-.073.158c-.317.134-.5.45-.755.645a.426.426,0,0,0,0,.256c.317.377.317.377.365.621a7.788,7.788,0,0,0-.243.755,5.453,5.453,0,0,1-.986-.073c-.377.122-.657.475-1.1.45h0a1.29,1.29,0,0,1-.426-.061,1.144,1.144,0,0,0-.5,0,3.324,3.324,0,0,1-.67,1.217,4.344,4.344,0,0,1-.463-.17c-1.57.8-1.57.8-1.619.962a1.74,1.74,0,0,0,0,.377,1.631,1.631,0,0,0,.158.487c1.01.231,1.083.511,1.071.584,0,.755-1.217.5-1.144,1.217l.122.256s.146.463.268,1.023c.609.207,1.071-.317,1.656-.292a1.826,1.826,0,0,1,.475.061l.11.207c0,.146-.158.329-.219.463a2.277,2.277,0,0,0-.438,0l-.231.085c-.8,2.021-.8,2.021-.609,2.337.937,0,1.534-1.01,2.52-.84a7.522,7.522,0,0,1-.426,1.339c-.365.341-.913.329-1.29.621s1.68,4.76,1.7,4.8c1.461,2.179,2.69,3.25,3.652,3.165a3.554,3.554,0,0,0,.536,0,1.643,1.643,0,0,1,.828-.207h.243c.256.061.5.085.743.146,0,1.436,1.595,1.217,2.252,2.009.353.4,3.092.426,3.031-.828v-.548c.134-1.57,2.763-3.116,1.1-4.565,0,0-1.059-1,.6-1.108a3.555,3.555,0,0,0,.536,0,2.435,2.435,0,0,1,.779,0,3.542,3.542,0,0,1,1.412-1.583,5.441,5.441,0,0,1,.207-1.692l.158-.17a1.509,1.509,0,0,0-.633-1.351v-.243c.523-.317,1.217-.073,1.692-.463s.073-.657.17-.962h1.984a2.605,2.605,0,0,1,0-1.059,3.518,3.518,0,0,1,1.108.122c0,.791,0,.816.146,1.083,1.023-.11,1.741-.852,2.654-1.217h.377a2.118,2.118,0,0,0,1.217-.231v-.256c.292-.572.9-.864,1.217-1.376.365-.134.365-.134.694-.876a2.861,2.861,0,0,0,.536-.207.706.706,0,0,1,0-.4c.633-.536.633-.536.463-1.217h.584l.17.11h.085l.17.158a1.388,1.388,0,0,0,.779.11c.718,0,1.315.463,2.033.45.925,0,.974-1.315,1.923-1.278.645,0,1.217-.511,1.863-.4.962.146.584-1.315,1.363-1.546h1.424c.28-.146.28-.146.657-.743l-.11-.219-.3-.122-.329.365-.085.3H171.8c-.523-.11-.8-.694-1.388-.694h-.4c-1.668-.073-1.96-.6-2.106-.852l-.207-.475c1.887-.3,1.887-.3,2.228-.621.816.3.937,1.473,1.936,1.57l.17-.17.073-.426c.45-.207.974.073,1.436-.183a9.856,9.856,0,0,0-2.435-1.838c-.828-.621-1.668-.718-2.057-1.656l.243-.085c1.035.6,1.035.6,1.108.6a2.057,2.057,0,0,0,.426,0h.243a6.429,6.429,0,0,0-.463-.816,1.9,1.9,0,0,1-.207-.414,1.023,1.023,0,0,0-1.619-.329,1.376,1.376,0,0,1-.755-.183l.365-.329c-.085-.085-.085-.085-.876-.4v-.134h.889l.353.523a5.186,5.186,0,0,0,1.023,0l.134-.219h.243a1.911,1.911,0,0,1,.414,0c.487.195.487.195.779.073.195-1.217-1.7-.73-2.435-1.217V9.8c1,.207,1.29.085,1.424,0l.134-.256.231.085h.316a1.1,1.1,0,0,0,.45-.085c-.718-.682-1.85-.779-2.435-1.631.073-.073.073-.073.6-.085-.158-.158-.316-.317-.657-.621a2.568,2.568,0,0,1-.718-.414l-.17-.146c-.67-.341-1.51-.207-2.094-.743l-.1-.1c.146-.158.146-.158.633-.243h.365a1.436,1.436,0,0,1,.9.3l.158.207c.158.207.195.317.974.8l.122-.073L167.662,5.59l-.061-.219-.122-.1c-.4-.207-.4-.207-1.217-.231h-.56a1.449,1.449,0,0,1-.39-.438l.219.073h.17l.243-.085a2.97,2.97,0,0,0-1.607-.3l.1.231a1.546,1.546,0,0,1-.767-.6V3.728a9.44,9.44,0,0,1-.755-.584h.365L163.048,3V2.778s.073,0,0-.134c-.6-.292-.609-.353-.694-.633h.231l-.219-.11V1.67l-.268-.085h-.816l-.207-.183.475.085h.195l-.4-.243.158-.11-.633-.3M145.044.27l.463-.085h-1l.548-.061h-2.337l-1.8.1-.937.085h.256a10.4,10.4,0,0,1-1.607.219l.572-.1h-.17l.962-.1h-.548L137.862.49h.024l-1.376.134h-.17l-.84.11h-.134l-.925.122h-.11l-1.217.183a3.749,3.749,0,0,1-1.023.219h.158l-.122.11,1.217-.219.743-.11h.487l-1.023.146-1.217.219-1.059.219a9.739,9.739,0,0,0,2.264-.28h.621l1.1-.183.9-.134c.548-.085,1.108-.146,1.656-.219h.134l-.39.024-2,.365h.548l-.718.134h-.828l-.536.073-1.217.158h-.621l-.864.195h.085l-.329.11-.73.219.268.073h-.67a4.87,4.87,0,0,0,1.132-.523h-.463l-1.035.219-.609.195-.755.256-.852.365-.195.158.377.073c-.39.11-.828.134-1.217.268l-1,.329.816-.45h-.146l-.682.073L124.7,3.2l-.986.207-1.01.3-.694.243.11.073h.572l.67-.073-1.217.292-.816.329c.365.073.365.073,2.569-.5l-1.217.414-1.424.353-.609.061v-.28l.207-.28h-.584a11.54,11.54,0,0,1-3.068,1l-1.217.39-.962.536V6.5a12.171,12.171,0,0,0,1.217-.3l1.729-.073v.146a3.652,3.652,0,0,0,.876-.134h.39c-.682.3-.682.3-.755.4a1.9,1.9,0,0,0,.816,0h.414a19.051,19.051,0,0,0,2.909-.84l.682-.377-1.059.256.986-.511.743-.11,1.217-.463.779-.39h.377a10.577,10.577,0,0,0,2.569-.767h.56a1.388,1.388,0,0,0,.937-.426V2.778h-.158l-.864.183-.73.158.682-.256c.67-.134,1.339-.292,2.009-.438h.377l-.414.183c.353.073.353.073,1.923-.256l.463-.292h.548l-.438.195h.463l.876-.146.718-.292v-.1h.84l.743-.17.694-.1c1-.183,1.984-.329,2.97-.523h.4l.523-.085.317-.122a9.155,9.155,0,0,1-1.534.1l.621-.11.548-.061h.828l1.217-.122A9.812,9.812,0,0,0,145.178.38M126.6,2.778l1.339-.365c.11-.146.11-.146.243-.207L129,2l.73-.17.4-.122-.8.134s1.351-.39,2.508-.609a13.732,13.732,0,0,0,1.716-.317l-1.217.146h.158a7.449,7.449,0,0,1-1.023.134H131.2c-.682.085-1.339.231-2,.353h-.523l-1.327.256-.791.134-1.278.268h.1l-1.339.317-.548.17h.463l.694-.1h.45a8.059,8.059,0,0,1-1.656.39h-.341l-.84.17-.572.219-1.217.377V3.91l.8-.11v.122l.913-.243h.207a6.9,6.9,0,0,0,.962-.28l1.083-.3-.207.146,1.217-.256h0a9.044,9.044,0,0,0,1.1-.243m-9.982,2.593a7.45,7.45,0,0,0,2.167-.743l-.962.158-1.595.475.39.11m-.231,2.922h0l1.1-.67-.377-.3-.5-.207-1.315.3-1.656.317-.852.1-.5-.17-.852.073.779-.572,1.315-.584,1.083-.475h-.694a11.7,11.7,0,0,0-3.944,1.668l-1.789.682-.743.5-.475.511,1.108-.134,1.217-.353c-.17.17-.329.365-.487.536h0a2.629,2.629,0,0,0,.962,0h1.217l.9-.207.828-.317-.243.341c2.179-.183,2.179-.183,2.788-.56a2.946,2.946,0,0,1,1.217-.45M102.048,9.814h.426l.718-.39-1.144.414m3.762-.633,1.546-.706.329-.329.852-.438-.584.1-1.376.365-1.108.426-.852.548h.475l-.146.256.864-.243m5.308-2.362,1.351-.426.864-.329.706-.39h-.5l.231-.158-.743.122-1.376.463-.536.353-.438.317h.438m5.746-1.923.986-.317h-.986l-1.217.317-.816.28.67-.073.621-.122.743-.085m1.217-.633.9-.243.889-.341h-.28l.925-.341-.925.207-1,.3-1.729.536.073.073.584-.085ZM123.5,2.486l.73-.122,1.436-.3.268-.085h-.195l-1.327.256h.231l-1.144.243M114.806,4.75l1.059-.28,1.217-.377.633-.219,1.217-.341.365-.146.548-.17h-.426l.706-.207.67-.195-.414.073-1.083.256-1.047.243h.3l-.39.122-1.3.3h-.292l-1.132.329h.317l-.645.219.767-.183h.292l-1.217.45v.1m-1.716.268.548-.146.718-.268h-.475l-1.144.353ZM108.89,7.063a5.429,5.429,0,0,0,1.351-.694,9.739,9.739,0,0,0-1,.28l.791-.426h-.377a12.027,12.027,0,0,1-2.715,1.156h0l1.522-.706H108.1l-1.217.45-1.217.511.718-.414,1.96-.755.426-.292-1.887.645c-.791.3-1.558.706-2.337,1.059l-.195.256.73-.183.463-.1-.73.365-1.668.767.8-.243.56-.061.536-.11,1.217-.463c.548-.231,1.071-.45,1.631-.657s.779-.243,1.217-.377M102.255,8.6c.487-.195.475-.28.475-.292h0c-.292,0-.523.219-.816.256l-1.083.463a4.687,4.687,0,0,0,1.424-.426m7.3-2.788.779-.183,1.656-.56.743-.219a29.388,29.388,0,0,0-3.177.962M101.9,23.387l1.412-.962.414-.986a14.2,14.2,0,0,0-1.96.146,19.478,19.478,0,0,0-1.9,1.12l-.28.864.95.11,1.363-.292m.9-11.991c1.887-.791,1.887-.791,1.887-1.023h-.633v-.256c-1.035.1-1.035.1-1.217.207a10.506,10.506,0,0,1-2.337,1c-.816.414-1.607.828-2.435,1.217L95.852,13.9l.986-.195,1.315-.5,1.363-.73.377.17,1.217-.475,1.789-.828m-9.739,3.433,1.826-.9.95-.67.718-.6.3-.39a6.951,6.951,0,0,0,3.055-1.485l.572-.365-.6.073-1.217.536H98.6l.1-.219-.864.219-1.023.523L96,12.091c-2.082.962-2.082.962-2.289.95a6.6,6.6,0,0,1,.682-.536l-.463.061-1.217.584-.45.45-.341.341.11.219c-1.595,1.108-1.595,1.108-1.485,1.412a16.13,16.13,0,0,0,1.643-.694l.95-.11m.085-2.374,1.729-.706.5-.329-.28-.183a9.653,9.653,0,0,0-1.217.45l-.73.523s-.243.158-1.217.73l1.144-.426m-.085-.6,1.217-.5-.414.073-.95.353.158.073ZM114.075,4.19a13.889,13.889,0,0,0,1.643-.463h-.39l-.706.134-1.631.377h1.083m-2.69.609,1.217-.3h-.584l-.718.3-1.217.28-2.009.609H108l.657-.158h.475l1.023-.28.9-.28h.268m-1.765.134h.1l1.534-.414.536-.17h-.268l-1.217.329Zm-8.278,3.494,2.435-.9.706-.3h-.243l-1.059.365.353-.158,1.12-.5,1.144-.39,1.217-.438h-.28l-.937.268-.536.134-.913.3c-.682.292-.682.292-2.435.913v.073a3.835,3.835,0,0,1-1.217.377h-.414l.67-.317L102.5,7.44l.438-.158h-.243l.584-.256.085-.061-1.01.317-1.85.584-1.339.426-1.5.5-1.412.523h.268l-.134.134.536-.122.852-.231.061.11h.329a7.693,7.693,0,0,1-1.083.3h-.39l-.937.3-.986.4-.365.219h.523l1.558-.475,1.7-.572.621-.122h1.1l1.412-.487M104.8,6.7h.122l1.217-.377a1.765,1.765,0,0,1-.511.085h.146l-.937.292M97.678,8.719l2.556-.864-.889.243-1.595.523-.073.1ZM106.2,6.053l1.68-.475.3-.134-1.376.365h-.3c-.158,0-4.869,1.376-4.869,1.388l-.231.085-1.059.317-1.412.475-.609.256,1.351-.438-.816.317.864-.268,1-.341h.3l1.522-.475,1.132-.329-1.424.4.621-.17.974-.256,2.349-.706M83.472,19.005l1.01-.56.39-.572-.073-.6,1.217-.95,1.826-.986.657-.584,2.313-1.217,1.217-.767.353-.414h-.5l-1.826.876-1.217.633-1.449.852-.9.4h-.122l.511-.377L88.1,14.1l.937-.523L90.4,12.76h-.256l-1.108.572-.828.463h-.438l-.9.426-.572.146,1.071-.5,1.3-.6H88.5l.207-.231-.45.085-1.217.584v-.085l.876-.377,1.5-.706.183-.146h-.377l-1.376.536-.816.292-.779.243-1.315.523-1.522.755-1.461.6-.913.45h.231l-.73.426L81.4,15.9l.523-.1-.73.475-.974.341-.816.28-1.071.5-.523.475.511-.061.8-.17a1.217,1.217,0,0,1,.475,0c-.4.438-.4.438-1.388.937H77.4l-.791.073-1.619.682-1.85,1.217h1.071l-1.692,1.217-.45.487.791-.061.876-.146,1.449-.633,1.1-.377,1.631-.755.937-.4-.426.414.572-.146-.4.84h.536l.84-.17,1.509-.852.548-.657.487-.085.925-.231m-7.3,2.849,1.327-.852-1.619.523-2.167.925.256.219,1.351-.572ZM88.3,12.614l1.217-.4,1.436-.645,1.351-.718v-.073l-1.217.438.438-.28.633-.341h-.122l-.816.219-1.217.475-2.13.864-3.287,1.412-4.516,2-.706.475L76.691,17.5l1.887-.876h.365l1.363-.609c2.24-1.071,5.721-2.52,5.758-2.52l2.289-.816M116.169,61.21l1.047-.828-.828-.755.84-.816L117.7,57.1l-2.191-.292-.183-1h-2.435l-2.118.986-1.461.8-.974-.4.755-1.217,2.435-.718,2.751-.6,1.363-.962-1.656-.1-1.436-.767-2.009-.511-.986-1.217-1.12-1.132-.243-1.035.937-.195.548-.755-.73-1.753-.889-1.9-.876-3.275-.061-1.436L104.69,41.55c-.243.56-.475,1.12-.73,1.68l-1.972.657L100.393,45.1h-1.57l.146-1.083-.67-.791-1.729.377,1.351-1.875c.414-.816.84-1.619,1.217-2.435l.6-1.217-1.729-.061-.852-.913-.45-1.29-1.217-1.351-1.217.657H92.541l-.4-.475h-1.96l-1.436.913-.195,1.3-1.5,1.777L86.5,39.858l-.316,1.509H85.1l-.925,1.607-1.217.9.523.706.755,1.132-.767,2.118c-.438.8-.876,1.631-1.3,2.435l-2,1.753-2.264,1.412-2.24.341.085,2.13c-.475.937-.925,1.875-1.376,2.824l-.122,1.619-.95,1.327-1.716,1.7-2.2.353-.1-2.349-.438-2.009c.28-.572.584-1.144.864-1.716l.864-2.435L71.822,53.3l-2.252-.3H67.854l-.5-.67-1.741-.609-.085-1.108-.962-1.217-.889-1.217-2.812.84.353-1.217,1.156-2.715L61.9,44.4l.183-1.035,2.958-3.214,3.129-2.435L71.055,35.6l1.936-.791,1.984-1.1.645-1.1L74.537,32.2l-.889-.706,1.546.317,1.12.475.974-.268,1.3-1.217.8.56,1.047-.268.937-.913.9-.414,1.473-1.217-.852-.122-1.083-.1.231-.645-.572-.694h.852l.937.463.572.414L85.3,27.38l1.814-1.108.146-.84H88.28l-.195.755-1.376.889L84.64,28.719c-.645.67-1.29,1.351-1.923,2.045l-1.522.511-.56.925h1.108c-.256.292-.511.584.073.95l.9-.292,1.4-1.108H85.59l.706.134.475.438h1.217l1.083-1.217-1.01-.28.682-1.436-1.327-.11L87.343,28.2l-.73-.219c.268-.268.523-.536.8-.8l.73.195.974-.609.511-.645h1.132l1.339-.937,1.948-.937,1.1-.767.256-.8.913-1.315,1.156-.219,1.339-.986.365-.925-.39-.475-.28-.694h1.327l.73-.487.84.085.146.523,1.217-.085,1.29-.268.195-.876.779-.195-.256,1,.913.085-.584.974.6.17-.28.743.511.365-.414.95.706.377v.974l-.816,1.217-2.435,1.351-2.2,1.376-.414,1.3-2.252.341-.828-.268H96.132l-2.313,1.144-.986,1.217,1.473.28,1.449-.122.876-.682.9-.4.73.219,1.315.487.511,1.668-.243.937.3,1.217H101.7l.73,1.595h2.435l1.217.718.657-.986-1.558-1.972-.487-.913V31.19l1.217.828,2.106,1.485,1.12.852c.243-.487.475-.962.73-1.436l1.509-1.217-1.01-.767.743-1.9-1.546-.706-.694-2.313,1.144-.645,1.083-.572,1.534,2.106.268,1.388,1.217.207,1.29-1.619,1.9-.6.584-.645h1.059l.816-.718.475-1.047H118.19c.11-.183.207-.365.329-.56l-.682-.864-.755-.134-.95-.426h-.962l.243-.73.134-.645h-1.583l-.572-.061c.268-.365.536-.73.84-1.083h1.083l.962-.511-1.144-.341.523-.438.791-.134-.195-.706-.828-.28,1.01-.657-.682-.5-1.217.073.341-.511h-.9l-.256-.11,1.3-.523-.682-.3-1.656.353.17-.864.463-.475h-.682l.657-.572-.633-.39H111.2l-.828.463-.9.122-.487-.134-1.023.584-.779.073.986-.743,1.388-.694.67-.876.95-.767h-1.217l-1.473.584-.864.073-1.217.414-1.424.8-.876.876-1.217.6-.95,1.132-.767.134.633-.962,1.7-1.217,1.217-.828,1.948-.852,1.9-.694H107.55l-1.339.183-2.678,1.01L100.5,13.223l-3.043,1.9.657.195h.621l-.755.73L97.41,15.9l-1.217.317-.609.913h1.023l.828-.256-.085.572.694.487-1.217.341-1.132.864-.146.609-3.031,1.8-1.948,1.29-1.887,1.047-.219-.4,1.217-1.522,1.619-.937.536-1.376-2.362,1.132,1.217-1.911-.11-.231,1.473-.974,1.388-1.059-.365-.1,1.217-.864.694-.913h-.864l-1.071.56-.523.073-1.923.937-.962.743-1.047.609-.706,1-.183.645-1.595.962-.536-.219-1.217,1.1.9-.11L87.2,20.21a18.342,18.342,0,0,0-1.546,1.217l-3.177,1.217L80.38,24.422l.183-.925,1.862-1.217H81.8l1.461-1.12h.572l2.069-1.595.073-.864-1.936,1.132-1.436.548-.56,1.217-1.583.755-1.339.913-2.435.268v-.682l-.487-.158.5-.925-1.7.779-2.179.889L71.4,24.58l-2.739,1.85,2.435-2.142.292-.743-1.534.487-1.327-.207.913-.633,1.473-.6.925-1.035-.657.122.523-.937,1.12-.8-.17-.11-.414.11-1.351.73-.6.231,2.581-1.546L70.24,20.782l.061-.134,3.08-1.789.341-.243-2.264,1.217-1.546.84-.548.256-1.29.657-1.692.962,2.435-1.4.889-.45.864-.438,1.217-.657.134-.1-1.315.609-1.753.925-.219.122H68.56c-4.541,2.654-10.4,6.537-14.778,9.434-6.927,4.942-6.927,4.942-19.416,16.263l-2.106,2.155.377-.377-.743.791L30.677,50.7l-.353.463-1.217,1.217-.56.767-1.108,1.217-.268.426v.134l-1.217,1.388-1.12,1.436-1.376,1.7L22.24,61.064l.134.122-1.436,1.936L19.879,64.91l-.9,1.351-.353.974-.073.657v.463l-.67,1.059-.4,1.315-.353,1.12-1.3,2.642c-.426.694-.876,1.412-1.3,2.118l.487-1.3.73-1.7.621-1.1.268-1v-.39l1.1-1.753-.329.073.341-.816.085-.39v-.268l-.377.268L16.665,69.6l-.3.8-.536,1.156L15.2,73.395l-1.047,2.057-1.351,2.654-1.278,2.216L9.812,83.267c-.609,1.12-1.217,2.252-1.777,3.384l-.67.852c-.377.755-.743,1.509-1.132,2.264l-.816,2.325L4.2,94.406l-.706,1.8-.426,1.534L2.057,100.1l-.426,1.923-.1,1.522L.682,106.9v1.327l-.487,1.753-.195,2,.694-.1.11,1.315.5,1.059.122,1.741L1.01,118.18l-.219,2.191-.45,3.652.243,1.534.365,1.789v1.315l-.828,1.217.085,1.57.523,1.388.743,1.546.353,1.716-.317,1.436.061,1.217.743.755.621,1.57.438,1.339-.11,1.643.536-.584.3-1.814-.134-2.021-.67-.767.11-1.777-.645-1.412v-4.419l-.438-1.558.195-2.118-.56-.609.146-2.605L1.85,122.2l.584-2.922.621-.183.657.816.146,1.534-.511,2.508.3,3.262.572,2.593.645,1.8.414,1.838L5.149,135.6l.925,1.217.56,2,.4,2.143L8.12,143.9l.4,2.666.657,1.217-.8,1.035-.317,1.692,1.449,2.435,1.217,2.021,1.643.889,1.741,1.887,2.13,1.583,2.435,1.984,2.045.889,1.339-.207.4-1.156,1.534-.353,1.741,1.339,1.984,2.313,1.12,1.936h2.276l.95.523,1.1,2.069,2.118.913v-1.412l1.217.8c3.774,6.647,3.774,6.647,3.555,8l.779,1.1.864-.584,1.217.779c2.605,2.97,2.605,2.97,3.774,2.812L50,183.027l1.777.925-.3-2.191.743-1.412,3.043.195.426,1.376.986-.146.426-1.826L55.875,178.3l-3.153.085-2.033-.085-2.97-.195-1.424-1.217-2.009-2.581v-2.106c0-.937-.085-1.863-.11-2.8l.5-3.542v-2.435l-.852-1.875L42,160.336l-2.7.377L37.42,160.2l-2.033,1.217L34.049,160.2l1.217-1.473v-2.617l.5-1.595.743-2.556c0-.937.085-1.887.122-2.824l1.217-1.156.3-2.106-.828-.791-2.9.377-1.8.475-.864,2-.852,2.97-.925,2.715-1.461.341-2.057.937-2.106.523-.9-1.948-1.631-1.315-.5-2.228-.986-2.885-.268-4.954.1-3.579,1.108-2.788.8-3.153-.341-3.189,1.923-3.153,1.217-.195,1.509-1.656L28,122.514l1.729.317,1.217.6,1.217-.706.621,1.68H34.4l1.29-.195-.061-1.3.816-2.13,2-.28,1.461-.317,2.617.28.755,1.826h.889l.755-1.071.828-.292,1.047,1.546.937,1.948c-.11.767-.207,1.522-.3,2.289l.536,1.315.134,1.473.8,1.059.341,1.595,1.071.779-.073,1.765,1.023.377.767-1.217.694-1.923-.377-2.3-.231-3.469-.986-3.031c.183-1.327.39-2.654.8-4.614.28-.633.657-1.485.95-2.106l1.631-2.909,1.923-.937,2.508-2.24,2.313-1.7,2.094-.937.645-1.643,1.741-1.059-.743-2.739-.67-1.217.743-1.5-.548-1.327,1.68-.9.816,1.948,1.217-1.984,1.217-1.729,1.217-1.12L72.5,90.754h2.885l2.118-1.217,2.228-.28-.207-1.424.609-2.934,2.033-2.264h1.716l.876-1.217,2.264.073,2.435-1.217,1.729-1.729c3.908-.146,3.908-.146,5.186.621-.243.17-.56.39-.791.584a22.267,22.267,0,0,0-3.129.17c-2,1.327-2,1.327-2.069,2.97l1.12.572,1.619-1.217,1.217-.694,2.045-.609L98.6,79.8l2.155-.475,2.009-1.948,1.875-1.363.536-1.546-2.276.548-1.972,2.435-2.52.134-1.8-.986-1.692-1.668-.365-2.861,2.143-1.485.5-2.264-2.593-.17-3.092.889-3.652,1.9-3.932,3.129-2.9,1.826L82.449,74.2l1.96-1.8,1.217-.876L83.484,70.9h2.97l1.217-1.546,2.069-1.424,2.009-.122,1.339-1.729,1.85-.657h2.605l4.869-.146,2.374.4,1.984-.122,2.276-1.388,2.191-1.887,3.189-.438,1.777-.633" transform="translate(0 -0.1)" fill="none"/>
    </clipPath>
  </defs>
  <g id="Group_23" data-name="Group 23" transform="translate(0 0)" clip-path="url(#clip-path)">
    <path id="Path_16" data-name="Path 16" d="M33.56,37q-124.24,116.863,0,233.726" transform="translate(-6.207 7.919)" fill="none" stroke="#cbcbcb" stroke-miterlimit="10" stroke-width="0.4"/>
    <path id="Path_17" data-name="Path 17" d="M35.416,35.07q-121.732,119.225,0,238.437" transform="translate(-5.531 7.5)" fill="none" stroke="#cbcbcb" stroke-miterlimit="10" stroke-width="0.4"/>
    <path id="Path_18" data-name="Path 18" d="M37.265,33.18q-119.139,121.525,0,243.038" transform="translate(-4.847 7.089)" fill="none" stroke="#cbcbcb" stroke-miterlimit="10" stroke-width="0.4"/>
    <path id="Path_19" data-name="Path 19" d="M39.119,31.33q-116.607,123.777,0,247.543" transform="translate(-4.169 6.687)" fill="none" stroke="#cbcbcb" stroke-miterlimit="10" stroke-width="0.4"/>
    <path id="Path_20" data-name="Path 20" d="M40.984,29.52Q-73.1,155.5,40.984,281.506" transform="translate(-3.49 6.294)" fill="none" stroke="#cbcbcb" stroke-miterlimit="10" stroke-width="0.4"/>
    <path id="Path_21" data-name="Path 21" d="M42.837,27.75q-111.543,128.135,0,256.259" transform="translate(-2.811 5.909)" fill="none" stroke="#cbcbcb" stroke-miterlimit="10" stroke-width="0.4"/>
    <path id="Path_22" data-name="Path 22" d="M44.731,26q-109.011,130.254,0,260.507" transform="translate(-2.124 5.529)" fill="none" stroke="#cbcbcb" stroke-miterlimit="10" stroke-width="0.4"/>
    <path id="Path_23" data-name="Path 23" d="M46.5,24.34q-106.418,132.274,0,264.573" transform="translate(-1.458 5.168)" fill="none" stroke="#cbcbcb" stroke-miterlimit="10" stroke-width="0.4"/>
    <path id="Path_24" data-name="Path 24" d="M48.41,22.69q-103.959,134.283,0,268.59" transform="translate(-0.776 4.809)" fill="none" stroke="#cbcbcb" stroke-miterlimit="10" stroke-width="0.4"/>
    <path id="Path_25" data-name="Path 25" d="M50.263,21.07q-101.415,136.255,0,272.522" transform="translate(-0.097 4.457)" fill="none" stroke="#cbcbcb" stroke-miterlimit="10" stroke-width="0.4"/>
    <path id="Path_26" data-name="Path 26" d="M52.114,19.5q-98.859,138.178,0,276.332" transform="translate(0.584 4.116)" fill="none" stroke="#cbcbcb" stroke-miterlimit="10" stroke-width="0.4"/>
    <path id="Path_27" data-name="Path 27" d="M53.979,18q-96.339,139.992,0,280.069" transform="translate(1.263 3.79)" fill="none" stroke="#cbcbcb" stroke-miterlimit="10" stroke-width="0.4"/>
    <path id="Path_28" data-name="Path 28" d="M55.833,16.48q-93.807,141.842,0,283.7" transform="translate(1.941 3.46)" fill="none" stroke="#cbcbcb" stroke-miterlimit="10" stroke-width="0.4"/>
    <path id="Path_29" data-name="Path 29" d="M57.69,15q-91.3,143.644,0,287.288" transform="translate(2.617 3.138)" fill="none" stroke="#cbcbcb" stroke-miterlimit="10" stroke-width="0.4"/>
    <path id="Path_30" data-name="Path 30" d="M59.539,13.62q-88.718,145.336,0,290.66" transform="translate(3.299 2.838)" fill="none" stroke="#cbcbcb" stroke-miterlimit="10" stroke-width="0.4"/>
    <path id="Path_31" data-name="Path 31" d="M61.4,12.25q-86.2,146.992,0,294" transform="translate(3.978 2.54)" fill="none" stroke="#cbcbcb" stroke-miterlimit="10" stroke-width="0.4"/>
    <path id="Path_32" data-name="Path 32" d="M63.258,10.92q-83.667,148.611,0,297.246" transform="translate(4.656 2.251)" fill="none" stroke="#cbcbcb" stroke-miterlimit="10" stroke-width="0.4"/>
    <path id="Path_33" data-name="Path 33" d="M65.111,9.63q-81.122,150.181,0,300.387" transform="translate(5.335 1.971)" fill="none" stroke="#cbcbcb" stroke-miterlimit="10" stroke-width="0.4"/>
    <path id="Path_34" data-name="Path 34" d="M67.021,8.37q-78.651,151.715,0,303.442" transform="translate(6.019 1.697)" fill="none" stroke="#cbcbcb" stroke-miterlimit="10" stroke-width="0.4"/>
    <path id="Path_35" data-name="Path 35" d="M68.786,7.16q-76.022,153.188,0,306.388" transform="translate(6.688 1.434)" fill="none" stroke="#cbcbcb" stroke-miterlimit="10" stroke-width="0.4"/>
    <path id="Path_36" data-name="Path 36" d="M70.682,6q-73.514,154.6,0,309.2" transform="translate(7.373 1.182)" fill="none" stroke="#cbcbcb" stroke-miterlimit="10" stroke-width="0.4"/>
    <path id="Path_37" data-name="Path 37" d="M72.536,4.86q-70.982,155.988,0,312" transform="translate(8.051 0.934)" fill="none" stroke="#cbcbcb" stroke-miterlimit="10" stroke-width="0.4"/>
    <path id="Path_38" data-name="Path 38" d="M74.4,3.76q-68.462,157.327,0,314.666" transform="translate(8.73 0.695)" fill="none" stroke="#cbcbcb" stroke-miterlimit="10" stroke-width="0.4"/>
    <path id="Path_39" data-name="Path 39" d="M76.254,2.71q-65.918,158.6,0,317.234" transform="translate(9.409 0.467)" fill="none" stroke="#cbcbcb" stroke-miterlimit="10" stroke-width="0.4"/>
    <path id="Path_40" data-name="Path 40" d="M78.107,1.7q-63.374,159.834,0,319.693" transform="translate(10.088 0.248)" fill="none" stroke="#cbcbcb" stroke-miterlimit="10" stroke-width="0.4"/>
    <path id="Path_41" data-name="Path 41" d="M79.963.72q-60.866,161.04,0,322.067" transform="translate(10.764 0.035)" fill="none" stroke="#cbcbcb" stroke-miterlimit="10" stroke-width="0.4"/>
    <path id="Path_42" data-name="Path 42" d="M81.826-.21q-58.322,162.16,0,324.343" transform="translate(11.445 -0.167)" fill="none" stroke="#cbcbcb" stroke-miterlimit="10" stroke-width="0.4"/>
    <path id="Path_43" data-name="Path 43" d="M83.679-1.11q-55.778,163.255,0,326.522" transform="translate(12.124 -0.363)" fill="none" stroke="#cbcbcb" stroke-miterlimit="10" stroke-width="0.4"/>
    <path id="Path_44" data-name="Path 44" d="M85.537-2q-53.294,164.339,0,328.677" transform="translate(12.798 -0.556)" fill="none" stroke="#cbcbcb" stroke-miterlimit="10" stroke-width="0.4"/>
    <path id="Path_45" data-name="Path 45" d="M87.385-2.78q-50.689,165.312,0,330.588" transform="translate(13.483 -0.726)" fill="none" stroke="#cbcbcb" stroke-miterlimit="10" stroke-width="0.4"/>
    <path id="Path_46" data-name="Path 46" d="M89.306-3.55q-48.243,166.225,0,332.475" transform="translate(14.166 -0.893)" fill="none" stroke="#cbcbcb" stroke-miterlimit="10" stroke-width="0.4"/>
    <path id="Path_47" data-name="Path 47" d="M91.069-4.29q-45.589,167.126,0,334.265" transform="translate(14.838 -1.054)" fill="none" stroke="#cbcbcb" stroke-miterlimit="10" stroke-width="0.4"/>
    <path id="Path_48" data-name="Path 48" d="M92.957-5q-43.093,167.991,0,335.981" transform="translate(15.519 -1.208)" fill="none" stroke="#cbcbcb" stroke-miterlimit="10" stroke-width="0.4"/>
    <path id="Path_49" data-name="Path 49" d="M94.822-5.64q-40.573,168.77,0,337.551" transform="translate(16.198 -1.347)" fill="none" stroke="#cbcbcb" stroke-miterlimit="10" stroke-width="0.4"/>
    <path id="Path_50" data-name="Path 50" d="M96.675-6.26a765.137,765.137,0,0,0,0,339.061" transform="translate(16.877 -1.482)" fill="none" stroke="#cbcbcb" stroke-miterlimit="10" stroke-width="0.4"/>
    <path id="Path_51" data-name="Path 51" d="M98.529-6.83a825.234,825.234,0,0,0,0,340.461" transform="translate(17.555 -1.606)" fill="none" stroke="#cbcbcb" stroke-miterlimit="10" stroke-width="0.4"/>
    <path id="Path_52" data-name="Path 52" d="M100.382-7.37a894.209,894.209,0,0,0,0,341.763" transform="translate(18.234 -1.723)" fill="none" stroke="#cbcbcb" stroke-miterlimit="10" stroke-width="0.4"/>
    <path id="Path_53" data-name="Path 53" d="M102.247-7.87a973.758,973.758,0,0,0,0,342.981" transform="translate(18.913 -1.832)" fill="none" stroke="#cbcbcb" stroke-miterlimit="10" stroke-width="0.4"/>
    <path id="Path_54" data-name="Path 54" d="M104.1-8.32a1068.528,1068.528,0,0,0,0,344.088" transform="translate(19.593 -1.93)" fill="none" stroke="#cbcbcb" stroke-miterlimit="10" stroke-width="0.4"/>
    <path id="Path_55" data-name="Path 55" d="M105.952-8.74a1181.069,1181.069,0,0,0,0,345.1" transform="translate(20.272 -2.021)" fill="none" stroke="#cbcbcb" stroke-miterlimit="10" stroke-width="0.4"/>
    <path id="Path_56" data-name="Path 56" d="M107.806-9.12a1318.178,1318.178,0,0,0,0,346.024" transform="translate(20.95 -2.104)" fill="none" stroke="#cbcbcb" stroke-miterlimit="10" stroke-width="0.4"/>
    <path id="Path_57" data-name="Path 57" d="M109.671-9.46a1487.639,1487.639,0,0,0,0,346.852" transform="translate(21.63 -2.178)" fill="none" stroke="#cbcbcb" stroke-miterlimit="10" stroke-width="0.4"/>
    <path id="Path_58" data-name="Path 58" d="M111.524-9.75a1706.049,1706.049,0,0,0,0,347.57" transform="translate(22.308 -2.241)" fill="none" stroke="#cbcbcb" stroke-miterlimit="10" stroke-width="0.4"/>
    <path id="Path_59" data-name="Path 59" d="M113.357-10a1996.6,1996.6,0,0,0,0,348.154" transform="translate(22.983 -2.295)" fill="none" stroke="#cbcbcb" stroke-miterlimit="10" stroke-width="0.4"/>
    <path id="Path_60" data-name="Path 60" d="M115.231-10.23a2402.265,2402.265,0,0,0,0,348.726" transform="translate(23.665 -2.345)" fill="none" stroke="#cbcbcb" stroke-miterlimit="10" stroke-width="0.4"/>
    <path id="Path_61" data-name="Path 61" d="M117.1-10.41a3004.741,3004.741,0,0,0,0,349.164" transform="translate(24.345 -2.384)" fill="none" stroke="#cbcbcb" stroke-miterlimit="10" stroke-width="0.4"/>
    <path id="Path_62" data-name="Path 62" d="M118.951-10.55q-7.633,174.747,0,349.505" transform="translate(25.021 -2.414)" fill="none" stroke="#cbcbcb" stroke-miterlimit="10" stroke-width="0.4"/>
    <path id="Path_63" data-name="Path 63" d="M120.8-10.65q-5.076,174.881,0,349.749" transform="translate(25.702 -2.436)" fill="none" stroke="#cbcbcb" stroke-miterlimit="10" stroke-width="0.4"/>
    <path id="Path_64" data-name="Path 64" d="M122.655-10.71q-2.52,174.954,0,349.9" transform="translate(26.382 -2.449)" fill="none" stroke="#cbcbcb" stroke-miterlimit="10" stroke-width="0.4"/>
    <path id="Path_65" data-name="Path 65" d="M124.52-10.73V339.214" transform="translate(27.061 -2.454)" fill="none" stroke="#cbcbcb" stroke-miterlimit="10" stroke-width="0.4"/>
    <path id="Path_66" data-name="Path 66" d="M126.6-10.71q2.544,174.954,0,349.9" transform="translate(27.513 -2.449)" fill="none" stroke="#cbcbcb" stroke-miterlimit="10" stroke-width="0.4"/>
    <path id="Path_67" data-name="Path 67" d="M128.68-10.65q5.076,174.881,0,349.749" transform="translate(27.965 -2.436)" fill="none" stroke="#cbcbcb" stroke-miterlimit="10" stroke-width="0.4"/>
    <path id="Path_68" data-name="Path 68" d="M130.76-10.55q7.62,174.747,0,349.505" transform="translate(28.417 -2.414)" fill="none" stroke="#cbcbcb" stroke-miterlimit="10" stroke-width="0.4"/>
    <path id="Path_69" data-name="Path 69" d="M132.85-10.41a3010.149,3010.149,0,0,1,0,349.165" transform="translate(28.871 -2.384)" fill="none" stroke="#cbcbcb" stroke-miterlimit="10" stroke-width="0.4"/>
    <path id="Path_70" data-name="Path 70" d="M134.93-10.23a2402.285,2402.285,0,0,1,0,348.726" transform="translate(29.323 -2.345)" fill="none" stroke="#cbcbcb" stroke-miterlimit="10" stroke-width="0.4"/>
    <path id="Path_71" data-name="Path 71" d="M137-10a1996.592,1996.592,0,0,1,0,348.154" transform="translate(29.773 -2.295)" fill="none" stroke="#cbcbcb" stroke-miterlimit="10" stroke-width="0.4"/>
    <path id="Path_72" data-name="Path 72" d="M139.1-9.75a1707.791,1707.791,0,0,1,0,347.57" transform="translate(30.23 -2.241)" fill="none" stroke="#cbcbcb" stroke-miterlimit="10" stroke-width="0.4"/>
    <path id="Path_73" data-name="Path 73" d="M141.18-9.46a1488.986,1488.986,0,0,1,0,346.852" transform="translate(30.682 -2.178)" fill="none" stroke="#cbcbcb" stroke-miterlimit="10" stroke-width="0.4"/>
    <path id="Path_74" data-name="Path 74" d="M143.26-9.12a1317.153,1317.153,0,0,1,0,346.024" transform="translate(31.134 -2.104)" fill="none" stroke="#cbcbcb" stroke-miterlimit="10" stroke-width="0.4"/>
    <path id="Path_75" data-name="Path 75" d="M145.34-8.74a1180.229,1180.229,0,0,1,0,345.1" transform="translate(31.586 -2.021)" fill="none" stroke="#cbcbcb" stroke-miterlimit="10" stroke-width="0.4"/>
    <path id="Path_76" data-name="Path 76" d="M147.43-8.32a1068.528,1068.528,0,0,1,0,344.088" transform="translate(32.04 -1.93)" fill="none" stroke="#cbcbcb" stroke-miterlimit="10" stroke-width="0.4"/>
    <path id="Path_77" data-name="Path 77" d="M149.51-7.87a974.347,974.347,0,0,1,0,342.981" transform="translate(32.492 -1.832)" fill="none" stroke="#cbcbcb" stroke-miterlimit="10" stroke-width="0.4"/>
    <path id="Path_78" data-name="Path 78" d="M151.59-7.37a894.208,894.208,0,0,1,0,341.763" transform="translate(32.944 -1.723)" fill="none" stroke="#cbcbcb" stroke-miterlimit="10" stroke-width="0.4"/>
    <path id="Path_79" data-name="Path 79" d="M153.67-6.83a825.231,825.231,0,0,1,0,340.461" transform="translate(33.396 -1.606)" fill="none" stroke="#cbcbcb" stroke-miterlimit="10" stroke-width="0.4"/>
    <path id="Path_80" data-name="Path 80" d="M155.76-6.26a765.5,765.5,0,0,1,0,339.061" transform="translate(33.85 -1.482)" fill="none" stroke="#cbcbcb" stroke-miterlimit="10" stroke-width="0.4"/>
    <path id="Path_81" data-name="Path 81" d="M157.84-5.64q40.573,168.782,0,337.551" transform="translate(34.302 -1.347)" fill="none" stroke="#cbcbcb" stroke-miterlimit="10" stroke-width="0.4"/>
    <path id="Path_82" data-name="Path 82" d="M159.92-5q43.118,167.991,0,335.981" transform="translate(34.754 -1.208)" fill="none" stroke="#cbcbcb" stroke-miterlimit="10" stroke-width="0.4"/>
    <path id="Path_83" data-name="Path 83" d="M162-4.29q45.65,167.126,0,334.265" transform="translate(35.206 -1.054)" fill="none" stroke="#cbcbcb" stroke-miterlimit="10" stroke-width="0.4"/>
    <path id="Path_84" data-name="Path 84" d="M164.09-3.55q48.169,166.238,0,332.475" transform="translate(35.66 -0.893)" fill="none" stroke="#cbcbcb" stroke-miterlimit="10" stroke-width="0.4"/>
    <path id="Path_85" data-name="Path 85" d="M166.17-2.78q50.714,165.312,0,330.588" transform="translate(36.113 -0.726)" fill="none" stroke="#cbcbcb" stroke-miterlimit="10" stroke-width="0.4"/>
    <path id="Path_86" data-name="Path 86" d="M168.25-2q53.258,164.339,0,328.677" transform="translate(36.565 -0.556)" fill="none" stroke="#cbcbcb" stroke-miterlimit="10" stroke-width="0.4"/>
    <path id="Path_87" data-name="Path 87" d="M170.34-1.11q55.766,163.267,0,326.523" transform="translate(37.019 -0.363)" fill="none" stroke="#cbcbcb" stroke-miterlimit="10" stroke-width="0.4"/>
    <path id="Path_88" data-name="Path 88" d="M172.42-.21q58.31,162.16,0,324.343" transform="translate(37.471 -0.167)" fill="none" stroke="#cbcbcb" stroke-miterlimit="10" stroke-width="0.4"/>
    <path id="Path_89" data-name="Path 89" d="M174.5.72q60.866,161.04,0,322.067" transform="translate(37.923 0.035)" fill="none" stroke="#cbcbcb" stroke-miterlimit="10" stroke-width="0.4"/>
    <path id="Path_90" data-name="Path 90" d="M176.58,1.69q63.374,159.859,0,319.705" transform="translate(38.375 0.246)" fill="none" stroke="#cbcbcb" stroke-miterlimit="10" stroke-width="0.4"/>
    <path id="Path_91" data-name="Path 91" d="M178.67,2.71q65.918,158.6,0,317.234" transform="translate(38.829 0.467)" fill="none" stroke="#cbcbcb" stroke-miterlimit="10" stroke-width="0.4"/>
    <path id="Path_92" data-name="Path 92" d="M180.75,3.76q68.474,157.327,0,314.666" transform="translate(39.281 0.695)" fill="none" stroke="#cbcbcb" stroke-miterlimit="10" stroke-width="0.4"/>
    <path id="Path_93" data-name="Path 93" d="M182.83,4.86q70.994,156,0,312" transform="translate(39.733 0.934)" fill="none" stroke="#cbcbcb" stroke-miterlimit="10" stroke-width="0.4"/>
    <path id="Path_94" data-name="Path 94" d="M184.91,6q73.538,154.6,0,309.2" transform="translate(40.185 1.182)" fill="none" stroke="#cbcbcb" stroke-miterlimit="10" stroke-width="0.4"/>
    <path id="Path_95" data-name="Path 95" d="M187,7.16q76.058,153.188,0,306.388" transform="translate(40.639 1.434)" fill="none" stroke="#cbcbcb" stroke-miterlimit="10" stroke-width="0.4"/>
    <path id="Path_96" data-name="Path 96" d="M189.08,8.37q78.59,151.727,0,303.442" transform="translate(41.091 1.697)" fill="none" stroke="#cbcbcb" stroke-miterlimit="10" stroke-width="0.4"/>
    <path id="Path_97" data-name="Path 97" d="M191.16,9.63q81.135,150.193,0,300.386" transform="translate(41.543 1.971)" fill="none" stroke="#cbcbcb" stroke-miterlimit="10" stroke-width="0.4"/>
    <path id="Path_98" data-name="Path 98" d="M193.25,10.92q83.691,148.611,0,297.246" transform="translate(41.998 2.251)" fill="none" stroke="#cbcbcb" stroke-miterlimit="10" stroke-width="0.4"/>
    <path id="Path_99" data-name="Path 99" d="M195.33,12.25q86.186,146.992,0,294" transform="translate(42.45 2.54)" fill="none" stroke="#cbcbcb" stroke-miterlimit="10" stroke-width="0.4"/>
    <path id="Path_100" data-name="Path 100" d="M197.41,13.62q88.731,145.336,0,290.66" transform="translate(42.902 2.838)" fill="none" stroke="#cbcbcb" stroke-miterlimit="10" stroke-width="0.4"/>
    <path id="Path_101" data-name="Path 101" d="M199.49,15q91.3,143.644,0,287.288" transform="translate(43.354 3.138)" fill="none" stroke="#cbcbcb" stroke-miterlimit="10" stroke-width="0.4"/>
    <path id="Path_102" data-name="Path 102" d="M201.58,16.48q93.795,141.855,0,283.7" transform="translate(43.808 3.46)" fill="none" stroke="#cbcbcb" stroke-miterlimit="10" stroke-width="0.4"/>
    <path id="Path_103" data-name="Path 103" d="M203.66,18q96.339,139.992,0,280.069" transform="translate(44.26 3.79)" fill="none" stroke="#cbcbcb" stroke-miterlimit="10" stroke-width="0.4"/>
    <path id="Path_104" data-name="Path 104" d="M205.74,19.5q98.871,138.178,0,276.332" transform="translate(44.712 4.116)" fill="none" stroke="#cbcbcb" stroke-miterlimit="10" stroke-width="0.4"/>
    <path id="Path_105" data-name="Path 105" d="M207.82,21.07q101.415,136.279,0,272.522" transform="translate(45.164 4.457)" fill="none" stroke="#cbcbcb" stroke-miterlimit="10" stroke-width="0.4"/>
    <path id="Path_106" data-name="Path 106" d="M209.91,22.68q103.935,134.307,0,268.6" transform="translate(45.618 4.807)" fill="none" stroke="#cbcbcb" stroke-miterlimit="10" stroke-width="0.4"/>
    <path id="Path_107" data-name="Path 107" d="M212,24.33q106.467,132.286,0,264.585" transform="translate(46.072 5.166)" fill="none" stroke="#cbcbcb" stroke-miterlimit="10" stroke-width="0.4"/>
    <path id="Path_108" data-name="Path 108" d="M214.07,26q109.036,130.254,0,260.507" transform="translate(46.522 5.529)" fill="none" stroke="#cbcbcb" stroke-miterlimit="10" stroke-width="0.4"/>
    <path id="Path_109" data-name="Path 109" d="M216.15,27.75q111.568,128.135,0,256.259" transform="translate(46.974 5.909)" fill="none" stroke="#cbcbcb" stroke-miterlimit="10" stroke-width="0.4"/>
    <path id="Path_110" data-name="Path 110" d="M218.24,29.52q114.087,125.981,0,251.986" transform="translate(47.429 6.294)" fill="none" stroke="#cbcbcb" stroke-miterlimit="10" stroke-width="0.4"/>
    <path id="Path_111" data-name="Path 111" d="M220.32,31.33q116.632,123.765,0,247.543" transform="translate(47.881 6.687)" fill="none" stroke="#cbcbcb" stroke-miterlimit="10" stroke-width="0.4"/>
    <path id="Path_112" data-name="Path 112" d="M222.4,33.18q119.164,121.525,0,243.038" transform="translate(48.333 7.089)" fill="none" stroke="#cbcbcb" stroke-miterlimit="10" stroke-width="0.4"/>
    <path id="Path_113" data-name="Path 113" d="M224.48,35.07q121.732,119.225,0,238.449" transform="translate(48.785 7.5)" fill="none" stroke="#cbcbcb" stroke-miterlimit="10" stroke-width="0.4"/>
    <path id="Path_114" data-name="Path 114" d="M226.57,37q124.167,116.863,0,233.726" transform="translate(49.239 7.919)" fill="none" stroke="#cbcbcb" stroke-miterlimit="10" stroke-width="0.4"/>
  </g>
</svg>
